<?xml version="1.0" encoding="UTF-8"?>
<svg id="Layer_1" xmlns="http://www.w3.org/2000/svg" version="1.1" xmlns:xlink="http://www.w3.org/1999/xlink" viewBox="0 0 3186 870">
  <!-- Generator: Adobe Illustrator 29.2.0, SVG Export Plug-In . SVG Version: 2.1.0 Build 108)  -->
  <defs>
    <style>
      .st0, .st1, .st2 {
        fill: #00dcfd;
      }

      .st0, .st3 {
        fill-rule: evenodd;
      }

      .st4 {
        font-family: CachetStd-Medium, 'Cachet Std';
        font-weight: 500;
      }

      .st4, .st1 {
        font-size: 368.9px;
      }

      .st4, .st3, .st5 {
        fill: #0aa6df;
      }

      .st1 {
        font-family: Calibri-Light, Calibri;
        font-weight: 300;
      }

      .st6 {
        filter: url(#drop-shadow-2);
      }

      .st6, .st7 {
        fill: #62b8ff;
      }

      .st8 {
        fill: #fff;
        filter: url(#drop-shadow-3);
      }

      .st9 {
        font-family: GrotesqueMTStd-Black, 'Grotesque MT Std';
        font-size: 309px;
        font-weight: 800;
      }

      .st7 {
        filter: url(#drop-shadow-1);
      }
    </style>
    <filter id="drop-shadow-1" x="-2277.7" y="-256.1" width="258.5" height="74.9" filterUnits="userSpaceOnUse">
      <feOffset dx="2.5" dy="2.5"/>
      <feGaussianBlur result="blur" stdDeviation="1.8"/>
      <feFlood flood-color="#000" flood-opacity=".8"/>
      <feComposite in2="blur" operator="in"/>
      <feComposite in="SourceGraphic"/>
    </filter>
    <filter id="drop-shadow-2" x="-2277.7" y="-97" width="297.4" height="235.2" filterUnits="userSpaceOnUse">
      <feOffset dx="2.5" dy="2.5"/>
      <feGaussianBlur result="blur1" stdDeviation="1.8"/>
      <feFlood flood-color="#000" flood-opacity=".8"/>
      <feComposite in2="blur1" operator="in"/>
      <feComposite in="SourceGraphic"/>
    </filter>
    <filter id="drop-shadow-3" x="-2055.2" y="-192.3" width="298.6" height="426.2" filterUnits="userSpaceOnUse">
      <feOffset dx="2.5" dy="2.5"/>
      <feGaussianBlur result="blur2" stdDeviation="1.8"/>
      <feFlood flood-color="#000" flood-opacity=".8"/>
      <feComposite in2="blur2" operator="in"/>
      <feComposite in="SourceGraphic"/>
    </filter>
  </defs>
  <polygon class="st7" points="-2051.9 -189.3 -2051.5 -189.3 -2051.2 -189.3 -2027.2 -189.3 -2075.8 -253.1 -2274.8 -253.2 -2274.8 -189.3 -2052.3 -189.3 -2051.9 -189.3 -2051.9 -189.3"/>
  <polygon class="st6" points="-2051.5 66.2 -2052.3 66.2 -2085.7 66.2 -2210.9 66.2 -2210.9 -29.6 -2129.3 -29.6 -2129.3 -93.5 -2274.8 -94.2 -2274.8 130.1 -2051.5 130.1 -2051.2 130.1 -1988.4 130.1 -1988.4 66.2 -2051.2 66.2 -2051.5 66.2"/>
  <polygon class="st8" points="-1764.8 226 -1764.8 -189.2 -1828.7 -189.2 -1828.7 52.1 -2026.2 -189.3 -2027.2 -189.3 -2027.2 -189.3 -2051.2 -189.3 -2051.5 -189.3 -2051.9 -189.3 -2052.3 -189.3 -2052.3 66.2 -2051.5 66.2 -2051.2 66.2 -1988.4 66.2 -1988.4 -47.3 -1764.8 226"/>
  <polygon points="-2051.2 -189.3 -2027.2 -189.3 -2027.2 -189.3 -2051.2 -189.3 -2051.2 -189.3"/>
  <rect x="-2051.9" y="-189.3" width=".4" height="0"/>
  <rect x="-2051.5" y="-189.3" width=".3" height="0"/>
  <g>
    <path class="st3" d="M1531,805.8l-22-544.7s2.8-133.4-145.8-176.1c0,0-149.9-46.8-265.5,41.3l-499.3,419.5s-117.7,78.6-156.4,72.3c0,0-83.5,14.7-133.8-114.3l417.4-127.2-53.6-125.9S557.9-12.7,251.2,102.2c0,0-334.9,127.2-167.1,516.5,0,0,114.2,271,442.9,171.9,0,0,151.1-50.3,364.5-260.9l251.7-227.4s118.3-71.5,118.3,70.1v431.9l269.6,1.4ZM338.5,262.4c89.4-34.4,130.7,61.9,130.7,61.9l-196.7,59.1s-23.4-86.7,66-121Z"/>
    <polygon class="st0" points="796.5 332.6 796.5 96 1030.4 96 1030.4 137.3 796.5 332.6"/>
    <polygon class="st0" points="796.5 655.8 796.5 801.6 1044.1 801.6 1044.1 434.4 796.5 655.8"/>
  </g>
  <text transform="translate(1601.8 407.8) scale(1 1.2)"><tspan><tspan class="st4" x="0" y="0">ELC</tspan><tspan class="st9" x="579.5" y="0" xml:space="preserve">  </tspan></tspan><tspan class="st1"><tspan x="0" y="316.7">NETWORK</tspan></tspan></text>
  <rect class="st2" x="-626" y="-110" width="232" height="261"/>
  <rect class="st5" x="-626" y="195" width="232" height="261"/>
</svg>