<?xml version="1.0" encoding="UTF-8"?>
<svg id="Layer_1" xmlns="http://www.w3.org/2000/svg" version="1.1" viewBox="0 0 2000 2000">
  <!-- Generator: Adobe Illustrator 29.2.0, SVG Export Plug-In . SVG Version: 2.1.0 Build 108)  -->
  <defs>
    <style>
      .st0, .st1 {
        fill-rule: evenodd;
      }

      .st0, .st2 {
        fill: #00dcfd;
      }

      .st1, .st3 {
        fill: #0aa6df;
      }

      .st3 {
        font-family: CachetStd-Medium, 'Cachet Std';
        font-weight: 500;
      }

      .st3, .st2 {
        font-size: 311.8px;
      }

      .st2 {
        font-family: Calibri-Light, Calibri;
        font-weight: 300;
      }

      .st4 {
        font-family: GrotesqueMTStd-Black, 'Grotesque MT Std';
        font-size: 261.1px;
        font-weight: 800;
        letter-spacing: 0em;
      }
    </style>
  </defs>
  <g>
    <path class="st1" d="M1965.7,1289.6l-28.5-704.1s3.6-172.5-188.5-227.6c0,0-193.8-60.5-343.2,53.3l-645.4,542.3s-152.2,101.6-202.2,93.5c0,0-108,19-173-147.7l539.6-164.5-69.3-162.7s-147.6-340.5-544.1-192c0,0-433,164.5-216,667.6,0,0,147.6,350.3,572.5,222.2,0,0,195.3-65,471.2-337.2l325.4-294s152.9-92.5,152.9,90.7v558.3l348.5,1.8ZM424.1,587.2c115.6-44.5,168.9,80,168.9,80l-254.2,76.5s-30.2-112,85.3-156.5Z"/>
    <polygon class="st0" points="1016.2 677.9 1016.2 372.1 1318.5 372.1 1318.5 425.5 1016.2 677.9"/>
    <polygon class="st0" points="1016.2 1095.8 1016.2 1284.2 1336.2 1284.2 1336.2 809.5 1016.2 1095.8"/>
  </g>
  <text transform="translate(41.9 1618.4)"><tspan><tspan class="st3" x="0" y="0">ELC</tspan><tspan class="st4" x="489.8" y="0" xml:space="preserve">  </tspan><tspan class="st2" x="615.2" y="0">NETWORK</tspan></tspan></text>
</svg>