<?xml version="1.0" encoding="UTF-8"?>
<svg version="1.1" xmlns="http://www.w3.org/2000/svg" width="1080" height="1080">
<path d="M0 0 C1.17449707 0.52062012 2.34899414 1.04124023 3.55908203 1.57763672 C36.92933136 16.45963673 68.4664229 34.46052244 98 56 C99.06202637 56.7727124 99.06202637 56.7727124 100.14550781 57.56103516 C124.88647628 75.64365289 147.85146026 95.83299884 169.5625 117.4375 C170.20501709 118.07534424 170.84753418 118.71318848 171.50952148 119.37036133 C175.3079242 123.18166184 178.91334458 127.11323754 182.43041992 131.18530273 C184.37265646 133.43085324 186.37182509 135.6212876 188.375 137.8125 C193.10518353 143.0620449 197.58457528 148.48436219 202 154 C202.41475586 154.5151416 202.82951172 155.0302832 203.25683594 155.56103516 C228.26204965 186.67173559 249.15641988 220.3237566 267 256 C267.4842041 256.95519531 267.9684082 257.91039062 268.46728516 258.89453125 C300.78633105 322.8317553 317.70097858 394.65883782 321.25 466 C321.31193542 467.24295334 321.31193542 467.24295334 321.37512207 468.51101685 C321.91320345 479.67982227 322.1169268 490.81923129 322 502 C321.98936523 503.03012207 321.97873047 504.06024414 321.96777344 505.12158203 C320.78917324 577.53026454 304.31899331 650.25257651 274 716 C273.54012695 716.99805664 273.08025391 717.99611328 272.60644531 719.02441406 C252.84887667 761.60284398 228.14159519 800.9990054 198 837 C197.58572754 837.49918945 197.17145508 837.99837891 196.74462891 838.51269531 C185.76817783 851.73645384 174.03062231 864.15621188 161.8815918 876.30371094 C159.93053259 878.25697528 157.98766164 880.21815254 156.04492188 882.1796875 C149.72469542 888.5275438 143.38875688 894.60086754 136.33276367 900.13476562 C133.90754843 902.07392256 131.64144188 904.12855108 129.375 906.25 C58.94527317 970.23662879 -36.95391642 1009.64060623 -145.8125 1027.25 C-146.95340088 1027.40114258 -148.09430176 1027.55228516 -149.26977539 1027.70800781 C-171.45497814 1030.45039911 -193.59630521 1031.37866901 -215.9375 1031.3125 C-217.2240448 1031.31067719 -218.5105896 1031.30885437 -219.83612061 1031.30697632 C-240.37590869 1031.25816821 -260.62264166 1030.6134625 -281 1028 C-281.6717627 1027.91514343 -282.34352539 1027.83028687 -283.03564453 1027.74285889 C-337.83776166 1020.78270559 -390.66644585 1005.77120665 -441 983 C-442.01529785 982.54125488 -443.0305957 982.08250977 -444.07666016 981.60986328 C-458.85381024 974.87268617 -472.98700385 967.19632793 -487 959 C-487.8569043 958.50387207 -488.71380859 958.00774414 -489.59667969 957.49658203 C-514.93770154 942.80350214 -538.46983338 925.67322786 -561 907 C-561.57878906 906.52175781 -562.15757812 906.04351563 -562.75390625 905.55078125 C-575.64878288 894.86987416 -587.7454731 883.42643895 -599.55908203 871.57128906 C-601.39110995 869.7338424 -603.22850605 867.9018835 -605.06640625 866.0703125 C-610.92278967 860.21758142 -616.67847406 854.35108132 -622 848 C-622.9003699 846.95514991 -623.80138366 845.91085422 -624.703125 844.8671875 C-650.17414442 814.94264628 -672.41473492 782.63489875 -691 748 C-691.46760742 747.13713379 -691.93521484 746.27426758 -692.41699219 745.38525391 C-730.46002623 675.00438704 -753.91805955 592.03534085 -754.203125 511.609375 C-754.21018961 510.26473455 -754.21732229 508.92009446 -754.22451782 507.57545471 C-754.24404733 503.30029754 -754.2492101 499.0251976 -754.25 494.75 C-754.25029457 494.02094326 -754.25058914 493.29188652 -754.25089264 492.54073715 C-754.25232762 470.55867837 -754.02367324 448.81787751 -751 427 C-750.90054077 426.2663623 -750.80108154 425.53272461 -750.6986084 424.77685547 C-742.25373892 362.62001271 -724.00395808 304.16713599 -696 248 C-695.54657227 247.08911621 -695.09314453 246.17823242 -694.62597656 245.23974609 C-676.73133924 209.56157766 -653.73672686 176.44730068 -628 146 C-627.45005371 145.34563965 -626.90010742 144.6912793 -626.33349609 144.01708984 C-621.26631356 137.99309244 -616.2154579 132.00944397 -610.54296875 126.5390625 C-608.92856426 124.92874511 -607.47124022 123.24177054 -606 121.5 C-598.38461537 112.67582416 -589.91458562 104.24526708 -581.0078125 96.7265625 C-578.87054286 94.88867693 -576.80363877 92.98246091 -574.73852539 91.06420898 C-568.69008936 85.45181635 -562.47314109 80.12077124 -556 75 C-555.35289062 74.48566406 -554.70578125 73.97132812 -554.0390625 73.44140625 C-543.28259445 64.91109368 -532.31401488 56.77437242 -521 49 C-520.40751465 48.58862793 -519.8150293 48.17725586 -519.20458984 47.75341797 C-441.8991223 -5.81964323 -349.25057845 -37.18519428 -253 -44 C-252.21028809 -44.05784668 -251.42057617 -44.11569336 -250.60693359 -44.17529297 C-175.48366061 -49.51746284 -99.68308699 -37.39620828 0 0 Z " fill="#000000" transform="translate(757,47)"/>
<path d="M0 0 C2.16870117 1.38793945 2.16870117 1.38793945 4 4 C4.57322245 7.4729602 4.48836971 10.90601263 4.42578125 14.41796875 C4.42249313 15.43095535 4.41920502 16.44394196 4.41581726 17.48762512 C4.40540394 19.62519774 4.38546684 21.76274222 4.35668945 23.90014648 C4.31252634 27.18554061 4.29524209 30.47020488 4.28320312 33.75585938 C4.2697831 35.8307398 4.25486124 37.90561117 4.23828125 39.98046875 C4.23089432 40.96895309 4.22350739 41.95743744 4.21589661 42.97587585 C4.20306137 43.88384415 4.19022614 44.79181244 4.17700195 45.72729492 C4.16715775 46.53019455 4.15731354 47.33309418 4.14717102 48.1603241 C4 50 4 50 3 51 C3.33 51.33 3.66 51.66 4 52 C4.24104013 54.52645767 4.42395395 57.03005991 4.5625 59.5625 C4.60568359 60.25408203 4.64886719 60.94566406 4.69335938 61.65820312 C5.5729199 76.63865454 3.74490371 90.4732342 -3 104 C-3.72123047 105.47726562 -3.72123047 105.47726562 -4.45703125 106.984375 C-13.52144042 124.01046716 -28.59744653 132.69920403 -45 141.75 C-52.95211332 146.16948968 -60.8815712 150.62044446 -68.75 155.1875 C-69.51699219 155.63254883 -70.28398438 156.07759766 -71.07421875 156.53613281 C-73.87380456 158.16500575 -76.66790478 159.79968017 -79.44140625 161.47265625 C-83.3234394 163.7900226 -87.25872807 166.01303845 -91.1875 168.25 C-99.43278704 172.95151532 -107.65831173 177.68620383 -115.875 182.4375 C-125.03880449 187.73485101 -134.23626117 192.96773442 -143.4609375 198.15820312 C-150.30504029 202.01861647 -157.09720457 205.96200928 -163.875 209.9375 C-172.97930896 215.27453414 -182.15124796 220.47598511 -191.36938477 225.61352539 C-199.210669 229.98730705 -207.02015151 234.41478139 -214.8125 238.875 C-215.39495483 239.20836365 -215.97740967 239.54172729 -216.57751465 239.88519287 C-219.53593532 241.57873714 -222.49389866 243.27307826 -225.45166016 244.96777344 C-229.5536066 247.31766053 -233.65787862 249.66347006 -237.76290894 252.00796509 C-240.65772165 253.66128549 -243.55168471 255.31604167 -246.44433594 256.97314453 C-251.9151147 260.10559411 -257.39160178 263.22598835 -262.89126587 266.30749512 C-265.49159661 267.76538272 -268.08833443 269.22960383 -270.68481445 270.69433594 C-271.92489327 271.39152756 -273.16672965 272.08560331 -274.41040039 272.77636719 C-276.13347142 273.73365491 -277.85009362 274.70252237 -279.56640625 275.671875 C-280.54552979 276.2194043 -281.52465332 276.76693359 -282.53344727 277.33105469 C-285.10982303 279.07430964 -286.59292571 280.22277264 -288 283 C-287.94997072 286.52564319 -287.66766229 288.30581588 -285.19921875 290.87231445 C-284.37035156 291.4262085 -283.54148437 291.98010254 -282.6875 292.55078125 C-281.68460937 293.23221191 -280.68171875 293.91364258 -279.6484375 294.61572266 C-278.4327764 295.41122302 -277.21658926 296.20591984 -276 297 C-274.55405817 297.96178241 -273.1087878 298.92457477 -271.6640625 299.88818359 C-267.39759315 302.72328336 -263.11465235 305.53263359 -258.82788086 308.33691406 C-241.74690552 319.51482938 -224.76686045 330.83283411 -207.86779785 342.28356934 C-197.54425077 349.27635399 -187.18992245 356.21667214 -176.765625 363.05859375 C-175.75580566 363.72166534 -174.74598633 364.38473694 -173.70556641 365.06790161 C-168.83282186 368.26527188 -163.95561721 371.45557374 -159.07226562 374.63671875 C-157.31373596 375.78765939 -155.5552691 376.93869601 -153.796875 378.08984375 C-153.00718323 378.60107285 -152.21749146 379.11230194 -151.40386963 379.63902283 C-146.60704474 382.78633395 -142.28339323 386.18060559 -138 390 C-138.28162017 393.37944207 -138.63767627 394.67837739 -141.21899414 396.96972656 C-145.7442605 400.27339745 -150.57574043 402.97620614 -155.4375 405.75 C-156.46166016 406.35199219 -157.48582031 406.95398438 -158.54101562 407.57421875 C-159.53681641 408.14269531 -160.53261719 408.71117187 -161.55859375 409.296875 C-162.45892334 409.81604492 -163.35925293 410.33521484 -164.28686523 410.87011719 C-167.63751682 412.26549337 -169.39079049 412.56522828 -173 412 C-176.08723989 410.49920375 -178.86711214 408.60765928 -181.69921875 406.67578125 C-182.54978348 406.1113884 -183.40034821 405.54699554 -184.27668762 404.96549988 C-187.08928453 403.09426569 -189.88821433 401.20357719 -192.6875 399.3125 C-194.66720579 397.98974282 -196.6476873 396.66814595 -198.62890625 395.34765625 C-204.7654555 391.25076021 -210.88389909 387.12733594 -217 383 C-218.85619948 381.74906293 -220.71247935 380.49824513 -222.56884766 379.24755859 C-229.64778915 374.47667917 -236.7244554 369.70247301 -243.79370117 364.91723633 C-258.73619166 354.80950181 -273.78398893 344.86588892 -288.87304688 334.97851562 C-297.88821531 329.06600481 -306.84885592 323.08741651 -315.73213196 316.97836304 C-321.78552623 312.818726 -327.87562873 308.71650974 -333.98046875 304.6328125 C-335.84184489 303.38548831 -337.70317294 302.13809237 -339.56445312 300.890625 C-342.3973286 298.9923293 -345.23131097 297.09579021 -348.06860352 295.20410156 C-350.87606257 293.33134802 -353.67863161 291.45146319 -356.48046875 289.5703125 C-357.32014694 289.01288361 -358.15982513 288.45545471 -359.02494812 287.88113403 C-372.88086724 278.54896044 -381.70693964 268.44666314 -385.75 251.9375 C-387.02828316 236.91767284 -383.75243589 224.48463538 -374.97265625 212.15234375 C-366.67229453 202.77473043 -355.17105441 197.62188717 -344.29443359 191.79394531 C-339.16759545 189.00218552 -334.14934565 186.03354491 -329.125 183.0625 C-319.5245815 177.41747608 -309.81770409 171.9859242 -300.06689453 166.60571289 C-292.65083909 162.50272846 -285.3048961 158.29746128 -278 154 C-268.49175619 148.4074253 -258.88401248 143.01734538 -249.22680664 137.68676758 C-240.13183724 132.65604941 -231.12419178 127.4845713 -222.1328125 122.27148438 C-215.47719724 118.41674009 -208.78975404 114.63265028 -202.0534668 110.92114258 C-189.66032711 104.07381707 -177.40990774 96.96643943 -165.12597656 89.92590332 C-163.2457597 88.84848515 -161.36510801 87.77182939 -159.484375 86.6953125 C-158.37288086 86.05867676 -157.26138672 85.42204102 -156.11621094 84.76611328 C-153.25954756 83.14709864 -150.38760584 81.56299799 -147.5 80 C-142.97724657 77.54908593 -138.5045111 75.01972776 -134.04394531 72.45751953 C-130.15303475 70.22477391 -126.25199954 68.01087163 -122.34375 65.80859375 C-121.33989258 65.24277588 -120.33603516 64.67695801 -119.30175781 64.09399414 C-117.31734135 62.97621204 -115.33234624 61.85945638 -113.34667969 60.74389648 C-107.89578767 57.67201141 -102.50405235 54.52111061 -97.1484375 51.28613281 C-94.75674584 49.85437921 -92.33389673 48.50030079 -89.875 47.1875 C-78.68453566 41.13313195 -67.66010689 34.81421832 -56.6875 28.375 C-46.63008982 22.4749546 -36.47713145 16.76790161 -26.26049805 11.14990234 C-20.45034523 7.94870409 -14.72972237 4.67362942 -9.12207031 1.12744141 C-5.90050256 -0.58415545 -3.54129223 -0.70825845 0 0 Z " fill="#838588" transform="translate(731,201)"/>
<path d="M0 0 C2.32370466 1.38089886 4.54868312 2.8590335 6.77708435 4.38903809 C7.62623413 4.95343094 8.47538391 5.51782379 9.3502655 6.09931946 C12.15406831 7.96848439 14.94187359 9.86017525 17.73020935 11.75231934 C19.70519281 13.0753203 21.68112028 14.39691301 23.65794373 15.71716309 C28.78060927 19.1445101 33.88990843 22.5912005 38.99461365 26.04522705 C42.74007467 28.57882669 46.4896949 31.10622512 50.23942566 33.63349915 C56.42106225 37.79985136 62.60090772 41.96880796 68.77415466 46.14758301 C83.71640092 56.25555801 98.76425606 66.19896827 113.85325623 76.08630371 C122.86842466 81.99881453 131.82906527 87.97740283 140.71234131 94.0864563 C146.76573558 98.24609333 152.85583808 102.34830959 158.9606781 106.43200684 C160.82205424 107.67933103 162.68338229 108.92672697 164.54466248 110.17419434 C167.37753795 112.07249004 170.21152032 113.96902913 173.04881287 115.86071777 C175.85627192 117.73347131 178.65884096 119.61335614 181.4606781 121.49450684 C182.30035629 122.05193573 183.14003448 122.60936462 184.00515747 123.1836853 C196.51268361 131.60769559 206.5065477 141.52230956 209.53489685 156.87731934 C211.71350909 172.47159642 208.57605724 185.96867152 199.10520935 198.55700684 C191.88314083 206.63024772 182.4942566 211.24044523 173.09642029 216.35192871 C168.02864808 219.13753587 163.0235728 222.0323933 158.01127625 224.9161377 C148.45522719 230.40854902 138.85831119 235.82463945 129.23020935 241.18981934 C121.13296531 245.70252525 113.09751889 250.3063771 105.10520935 255.00231934 C95.59391918 260.58856297 85.98808973 265.98350512 76.33274841 271.31628418 C68.13308609 275.85124721 59.98276546 280.46497418 51.85520935 285.12731934 C41.90776729 290.83288801 31.92632481 296.47358797 21.91233826 302.06164551 C15.49408776 305.64657285 9.10327849 309.27527366 2.73020935 312.93981934 C-5.56816996 317.70950108 -13.94115457 322.33634126 -22.33229065 326.93981934 C-32.38126767 332.45373582 -42.33097092 338.10795742 -52.21144104 343.92028809 C-59.18329489 348.01462024 -66.20721614 352.00420316 -73.26979065 355.93981934 C-82.19295201 360.91344198 -91.08949297 365.93081396 -99.95729065 371.00231934 C-100.83431137 371.50378479 -100.83431137 371.50378479 -101.72904968 372.01538086 C-109.15364205 376.26239044 -116.56467428 380.53253099 -123.96827698 384.81604004 C-133.86839217 390.5432869 -143.79340362 396.22149831 -153.76979065 401.81481934 C-154.81159485 402.39957031 -155.85339905 402.98432129 -156.92677307 403.58679199 C-170.33729322 411.08106927 -170.33729322 411.08106927 -173.64479065 411.00231934 C-176.79160897 409.76015421 -177.99989705 408.83117822 -180.01979065 406.06481934 C-180.59604928 402.70066138 -180.50824763 399.37592777 -180.4455719 395.97106934 C-180.44228378 394.9873938 -180.43899567 394.00371826 -180.43560791 392.99023438 C-180.42519282 390.91232683 -180.40525269 388.8344483 -180.3764801 386.75671387 C-180.33245514 383.57670093 -180.31504961 380.39744291 -180.30299377 377.21716309 C-180.28956714 375.19762096 -180.27464347 373.17808811 -180.2580719 371.15856934 C-180.25068497 370.20744263 -180.24329803 369.25631592 -180.23568726 368.27636719 C-180.2164344 366.94478577 -180.2164344 366.94478577 -180.1967926 365.58630371 C-180.18694839 364.80783081 -180.17710419 364.02935791 -180.16696167 363.22729492 C-180.01977061 361.06452486 -179.61226855 359.14591575 -179.01979065 357.06481934 C-179.67979065 357.06481934 -180.33979065 357.06481934 -181.01979065 357.06481934 C-181.58848739 341.80479009 -180.88059331 325.29281294 -175.01979065 311.06481934 C-174.62920471 310.06063965 -174.23861877 309.05645996 -173.8361969 308.02185059 C-166.42900278 291.86252466 -151.57771222 279.8621701 -136.01979065 272.06481934 C-133.77713084 270.71193871 -131.54772107 269.3368437 -129.33229065 267.93981934 C-124.74549949 265.09436087 -120.11033853 262.43672626 -115.35572815 259.88513184 C-103.66430294 253.50550169 -92.13866732 246.83433572 -80.84010315 239.78356934 C-77.32623303 237.64215264 -73.72518296 235.70103803 -70.09791565 233.76013184 C-66.19024398 231.60793703 -62.35733199 229.33907326 -58.51979065 227.06481934 C-53.05368463 223.83000765 -47.56493944 220.67223485 -41.97291565 217.65856934 C-31.05729029 211.76759692 -20.2777981 205.65859943 -9.58229065 199.37731934 C-0.96111502 194.31539541 7.7268777 189.39445959 16.48020935 184.56481934 C26.08838004 179.26276832 35.60200041 173.82520966 45.0622406 168.26403809 C52.15182589 164.10581369 59.2983761 160.06135538 66.48020935 156.06481934 C75.04996013 151.29285032 83.57001039 146.44472706 92.04270935 141.50231934 C93.51417419 140.64477051 93.51417419 140.64477051 95.0153656 139.76989746 C97.6766267 138.21195086 100.32871765 136.63931231 102.98020935 135.06481934 C103.77564148 134.60671875 104.57107361 134.14861816 105.39060974 133.67663574 C106.47523499 133.03540771 106.47523499 133.03540771 107.58177185 132.38122559 C108.21035095 132.01585693 108.83893005 131.65048828 109.48655701 131.27404785 C111.35195666 129.97271554 111.35195666 129.97271554 112.29270935 126.56481934 C111.95472422 122.77938586 111.29562319 121.92138751 108.61064148 119.41296387 C105.38828678 116.74851695 101.88758403 114.51725549 98.37864685 112.25231934 C97.52666718 111.69500122 96.6746875 111.13768311 95.79689026 110.56347656 C93.95312817 109.35790232 92.10767666 108.15490868 90.26072693 106.95422363 C85.26003509 103.7023663 80.27275162 100.43006972 75.28489685 97.15856934 C73.7434903 96.14832703 73.7434903 96.14832703 72.17094421 95.11767578 C61.8767706 88.36076683 51.67357217 81.47246497 41.48020935 74.56481934 C23.69269205 62.51952941 5.79449403 50.64893249 -12.16410828 38.86038208 C-13.85071305 37.75145711 -15.53557095 36.63986972 -17.2184906 35.52536011 C-20.7435192 33.19353479 -24.27108212 30.89087917 -27.89527893 28.71569824 C-28.98953186 28.04329102 -30.08378479 27.37088379 -31.2111969 26.67810059 C-32.13231262 26.13580811 -33.05342834 25.59351563 -34.00245667 25.03479004 C-36.81641161 22.28690157 -36.78661643 19.89235839 -37.01979065 16.06481934 C-31.29061326 11.52675786 -25.34458416 7.73243277 -18.95729065 4.18981934 C-18.09813049 3.69224121 -17.23897034 3.19466309 -16.35377502 2.68200684 C-15.08823792 1.97817871 -15.08823792 1.97817871 -13.7971344 1.26013184 C-13.04681946 0.83748047 -12.29650452 0.4148291 -11.52345276 -0.02062988 C-7.4615616 -1.50437872 -4.02242802 -1.86241921 0 0 Z " fill="#838588" transform="translate(526.0197906494141,468.9351806640625)"/>
<path d="M0 0 C2.17089844 1.38574219 2.17089844 1.38574219 4 4 C4.56233032 7.48589142 4.46441858 10.93039924 4.390625 14.453125 C4.38496521 15.46848328 4.37930542 16.48384155 4.37347412 17.52996826 C4.35109753 20.77046001 4.30089755 24.0098429 4.25 27.25 C4.22993671 29.44790069 4.21168565 31.64581872 4.1953125 33.84375 C4.15122871 39.2295445 4.08430373 44.61469303 4 50 C3.11441406 49.51475105 3.11441406 49.51475105 2.2109375 49.0196991 C-1.00859635 47.53482865 -3.48995352 47.6948094 -7 48 C-10.06941891 49.21110557 -10.06941891 49.21110557 -13 51.04296875 C-14.68403931 52.02571777 -14.68403931 52.02571777 -16.40209961 53.02832031 C-17.60148073 53.7479119 -18.80077889 54.46764177 -20 55.1875 C-21.25107729 55.92317972 -22.50312589 56.65720998 -23.75610352 57.38964844 C-26.29679588 58.87614636 -28.8335337 60.36906465 -31.36767578 61.86669922 C-36.51624138 64.90102366 -41.72594366 67.82562025 -46.9375 70.75 C-56.68145898 76.24495941 -66.3979903 81.78685269 -76.10644531 87.34423828 C-82.78114983 91.16366505 -89.45918682 94.9772671 -96.13671875 98.79174805 C-101.54549549 101.88169778 -106.95371735 104.97259197 -112.35858154 108.06938171 C-125.26643485 115.46501018 -138.20066426 122.8086491 -151.19116211 130.05859375 C-158.95548509 134.39830348 -166.66269046 138.8291575 -174.3515625 143.30078125 C-179.26483723 146.15765143 -184.19181461 148.99016654 -189.125 151.8125 C-189.99189453 152.30854736 -190.85878906 152.80459473 -191.75195312 153.31567383 C-196.48903983 156.01894021 -201.23952064 158.69588803 -206.0078125 161.34375 C-217.71937307 167.84894259 -229.29454607 174.52031477 -240.75585938 181.45751953 C-250.480715 187.32875613 -260.35556312 192.91159862 -270.26513672 198.46337891 C-275.4772502 201.39187759 -280.66998671 204.35443063 -285.85180664 207.33618164 C-290.79254975 210.17839958 -295.7539844 212.97614239 -300.7421875 215.734375 C-301.90759326 216.38608089 -303.07255139 217.0385879 -304.23706055 217.69189453 C-306.46557271 218.94041638 -308.70101087 220.17669147 -310.94458008 221.39794922 C-324.53667287 229.06821985 -333.50112042 239.01030489 -337.90625 254.10546875 C-340.57102754 267.37676217 -338.4143165 280.31076104 -331.1875 291.75 C-324.910989 300.48455349 -317.03974092 305.86779606 -308.10644531 311.63330078 C-304.56844286 313.92881976 -301.06769743 316.27982703 -297.5625 318.625 C-296.0379684 319.64223886 -294.51322118 320.65915463 -292.98828125 321.67578125 C-292.1885791 322.20896973 -291.38887695 322.7421582 -290.56494141 323.29150391 C-287.80891402 325.12728152 -285.05103446 326.96025507 -282.29296875 328.79296875 C-271.45756732 335.9977245 -260.65214203 343.24157892 -249.92089844 350.60083008 C-240.02722939 357.37820702 -230.02439953 363.99198419 -220.0344696 370.62612915 C-216.73545007 372.81750262 -213.43745932 375.01042142 -210.13964844 377.20361328 C-208.46735022 378.31512334 -206.79450098 379.42580483 -205.12109375 380.53564453 C-195.54917991 386.88508894 -186.0251821 393.27178053 -176.74893188 400.04953003 C-172.34970843 403.21761072 -167.90409177 405.68253215 -163 408 C-165.08898662 410.57106045 -166.28876372 411.87500534 -169.60473633 412.45776367 C-174.49751199 411.79809916 -177.67138345 409.42330725 -181.69921875 406.67578125 C-182.54978348 406.1113884 -183.40034821 405.54699554 -184.27668762 404.96549988 C-187.08928453 403.09426569 -189.88821433 401.20357719 -192.6875 399.3125 C-194.66720579 397.98974282 -196.6476873 396.66814595 -198.62890625 395.34765625 C-204.7654555 391.25076021 -210.88389909 387.12733594 -217 383 C-218.85619948 381.74906293 -220.71247935 380.49824513 -222.56884766 379.24755859 C-229.64778915 374.47667917 -236.7244554 369.70247301 -243.79370117 364.91723633 C-258.73619166 354.80950181 -273.78398893 344.86588892 -288.87304688 334.97851562 C-297.88821531 329.06600481 -306.84885592 323.08741651 -315.73213196 316.97836304 C-321.78552623 312.818726 -327.87562873 308.71650974 -333.98046875 304.6328125 C-335.84184489 303.38548831 -337.70317294 302.13809237 -339.56445312 300.890625 C-342.3973286 298.9923293 -345.23131097 297.09579021 -348.06860352 295.20410156 C-350.87606257 293.33134802 -353.67863161 291.45146319 -356.48046875 289.5703125 C-357.32014694 289.01288361 -358.15982513 288.45545471 -359.02494812 287.88113403 C-372.88086724 278.54896044 -381.70693964 268.44666314 -385.75 251.9375 C-387.02828316 236.91767284 -383.75243589 224.48463538 -374.97265625 212.15234375 C-366.67229453 202.77473043 -355.17105441 197.62188717 -344.29443359 191.79394531 C-339.16759545 189.00218552 -334.14934565 186.03354491 -329.125 183.0625 C-319.5245815 177.41747608 -309.81770409 171.9859242 -300.06689453 166.60571289 C-292.65083909 162.50272846 -285.3048961 158.29746128 -278 154 C-268.49175619 148.4074253 -258.88401248 143.01734538 -249.22680664 137.68676758 C-240.13183724 132.65604941 -231.12419178 127.4845713 -222.1328125 122.27148438 C-215.47719724 118.41674009 -208.78975404 114.63265028 -202.0534668 110.92114258 C-189.66032711 104.07381707 -177.40990774 96.96643943 -165.12597656 89.92590332 C-163.2457597 88.84848515 -161.36510801 87.77182939 -159.484375 86.6953125 C-158.37288086 86.05867676 -157.26138672 85.42204102 -156.11621094 84.76611328 C-153.25954756 83.14709864 -150.38760584 81.56299799 -147.5 80 C-142.97724657 77.54908593 -138.5045111 75.01972776 -134.04394531 72.45751953 C-130.15303475 70.22477391 -126.25199954 68.01087163 -122.34375 65.80859375 C-121.33989258 65.24277588 -120.33603516 64.67695801 -119.30175781 64.09399414 C-117.31734135 62.97621204 -115.33234624 61.85945638 -113.34667969 60.74389648 C-107.89578767 57.67201141 -102.50405235 54.52111061 -97.1484375 51.28613281 C-94.75674584 49.85437921 -92.33389673 48.50030079 -89.875 47.1875 C-78.68453566 41.13313195 -67.66010689 34.81421832 -56.6875 28.375 C-46.63008982 22.4749546 -36.47713145 16.76790161 -26.26049805 11.14990234 C-20.45034523 7.94870409 -14.72972237 4.67362942 -9.12207031 1.12744141 C-5.90050256 -0.58415545 -3.54129223 -0.70825845 0 0 Z " fill="#8F9297" transform="translate(731,201)"/>
<path d="M0 0 C3.15611704 1.44624533 5.93979794 3.36256977 8.796875 5.32421875 C9.64602478 5.8886116 10.49517456 6.45300446 11.37005615 7.03450012 C14.17385896 8.90366505 16.96166424 10.79535592 19.75 12.6875 C21.72498345 14.01050096 23.70091093 15.33209368 25.67773438 16.65234375 C30.80039992 20.07969077 35.90969908 23.52638117 41.0144043 26.98040771 C44.75986532 29.51400735 48.50948555 32.04140578 52.25921631 34.56867981 C58.4408529 38.73503202 64.62069837 42.90398863 70.79394531 47.08276367 C85.73619157 57.19073867 100.78404671 67.13414894 115.87304688 77.02148438 C124.88821531 82.93399519 133.84885592 88.91258349 142.73213196 95.02163696 C148.78552623 99.181274 154.87562873 103.28349026 160.98046875 107.3671875 C162.84184489 108.61451169 164.70317294 109.86190763 166.56445312 111.109375 C169.3973286 113.0076707 172.23131097 114.90420979 175.06860352 116.79589844 C177.87606257 118.66865198 180.67863161 120.54853681 183.48046875 122.4296875 C184.32014694 122.98711639 185.15982513 123.54454529 186.02494812 124.11886597 C198.53247426 132.54287625 208.52633835 142.45749022 211.5546875 157.8125 C213.73329974 173.40677708 210.59584789 186.90385218 201.125 199.4921875 C193.90293148 207.56542839 184.51404725 212.1756259 175.11621094 217.28710938 C170.04843873 220.07271654 165.04336345 222.96757396 160.03106689 225.85131836 C150.47501784 231.34372968 140.87810184 236.75982012 131.25 242.125 C123.15275596 246.63770592 115.11730954 251.24155776 107.125 255.9375 C97.61370983 261.52374363 88.00788038 266.91868579 78.35253906 272.25146484 C70.15287674 276.78642787 62.00255611 281.40015485 53.875 286.0625 C43.92755794 291.76806868 33.94611546 297.40876863 23.93212891 302.99682617 C17.51387841 306.58175352 11.12306914 310.21045433 4.75 313.875 C-3.54837931 318.64468174 -11.92136392 323.27152192 -20.3125 327.875 C-30.36147702 333.38891649 -40.31118027 339.04313808 -50.19165039 344.85546875 C-57.16350424 348.9498009 -64.1874255 352.93938383 -71.25 356.875 C-80.17316136 361.84862265 -89.06970232 366.86599463 -97.9375 371.9375 C-98.81452072 372.43896545 -98.81452072 372.43896545 -99.70925903 372.95056152 C-107.1338514 377.1975711 -114.54488363 381.46771165 -121.94848633 385.7512207 C-131.84860152 391.47846756 -141.77361297 397.15667898 -151.75 402.75 C-152.7918042 403.33475098 -153.8336084 403.91950195 -154.90698242 404.52197266 C-168.31750257 412.01624994 -168.31750257 412.01624994 -171.625 411.9375 C-174.77866728 410.69263134 -175.98070866 409.77823373 -178 407 C-178.56569003 403.58781646 -178.46454151 400.21590357 -178.390625 396.765625 C-178.38496521 395.77246277 -178.37930542 394.77930054 -178.37347412 393.75604248 C-178.35110026 390.58686941 -178.30090106 387.4188308 -178.25 384.25 C-178.22993635 382.10027676 -178.21168534 379.95053577 -178.1953125 377.80078125 C-178.15123239 372.53346771 -178.08431033 367.26681491 -178 362 C-177.39132584 362.15670166 -176.78265167 362.31340332 -176.15553284 362.47485352 C-175.3521196 362.67006592 -174.54870636 362.86527832 -173.72094727 363.06640625 C-172.52949852 363.36333374 -172.52949852 363.36333374 -171.3139801 363.66625977 C-167.63895924 364.1962999 -165.02239854 362.78509346 -161.9375 361 C-161.27032959 360.64115723 -160.60315918 360.28231445 -159.91577148 359.91259766 C-157.5892311 358.6431005 -155.29397348 357.32741675 -153 356 C-152.11860352 355.49307617 -151.23720703 354.98615234 -150.32910156 354.46386719 C-145.31926696 351.57311112 -140.32962397 348.6494093 -135.34765625 345.7109375 C-129.11590043 342.04768211 -122.81806422 338.51173599 -116.5 335 C-108.27773717 330.42476526 -100.11424613 325.76416942 -92 321 C-82.77705666 315.58631928 -73.48250251 310.31566139 -64.14233398 305.10717773 C-50.83971833 297.68775214 -37.63427847 290.10261776 -24.44628906 282.48168945 C-10.39894201 274.36450369 3.70407166 266.35153692 17.84570312 258.39990234 C33.65544961 249.50894615 49.34658366 240.42871322 64.98828125 231.24560547 C77.12682512 224.12037567 89.31773933 217.11204843 101.61572266 210.26538086 C111.88586872 204.53461038 122.04832113 198.62362277 132.17822266 192.64892578 C134.18496123 191.47627374 136.20135952 190.32008473 138.22412109 189.17529297 C139.28840332 188.56959473 140.35268555 187.96389648 141.44921875 187.33984375 C142.41561279 186.79577881 143.38200684 186.25171387 144.37768555 185.69116211 C146.95923983 184.02628673 148.84681308 182.16915179 151 180 C151.66 180 152.32 180 153 180 C153.26941406 179.43796875 153.53882813 178.8759375 153.81640625 178.296875 C155.07238047 175.8595389 156.48314559 173.57400653 157.9375 171.25 C164.95136731 159.61724447 166.78809888 147.32611256 163.9375 134 C159.35742556 117.59344225 148.72880438 109.15850225 135.10644531 100.36669922 C131.56844286 98.07118024 128.06769743 95.72017297 124.5625 93.375 C123.0379684 92.35776114 121.51322118 91.34084537 119.98828125 90.32421875 C119.1885791 89.79103027 118.38887695 89.2578418 117.56494141 88.70849609 C114.80891402 86.87271848 112.05103446 85.03974493 109.29296875 83.20703125 C98.45756732 76.0022755 87.65214203 68.75842108 76.92089844 61.39916992 C67.02722939 54.62179298 57.02439953 48.00801581 47.0344696 41.37387085 C43.73545007 39.18249738 40.43745932 36.98957858 37.13964844 34.79638672 C35.46735022 33.68487666 33.79450098 32.57419517 32.12109375 31.46435547 C22.54917991 25.11491106 13.0251821 18.72821947 3.74893188 11.95046997 C-0.65029157 8.78238928 -5.09590823 6.31746785 -10 4 C-9.67 3.01 -9.34 2.02 -9 1 C-5.80564557 -0.59717721 -3.5539152 -0.35791171 0 0 Z " fill="#8F9397" transform="translate(524,468)"/>
<path d="M0 0 C2.66894531 1.44287109 2.66894531 1.44287109 5.328125 3.2734375 C6.29234375 3.9334375 7.2565625 4.5934375 8.25 5.2734375 C9.24 5.96695313 10.23 6.66046875 11.25 7.375 C12.25546875 8.06078125 13.2609375 8.7465625 14.296875 9.453125 C21.72181271 14.58271906 21.72181271 14.58271906 24 18 C25.32796291 18.35412344 26.66216607 18.68521554 28 19 C30.25 20.25 30.25 20.25 32 22 C32.5625 24.4375 32.5625 24.4375 32 27 C28.74598904 29.91381231 25.30460467 32.08604545 21.484375 34.1796875 C20.40945801 34.77241455 19.33454102 35.3651416 18.22705078 35.97583008 C17.07962402 36.60255615 15.93219727 37.22928223 14.75 37.875 C12.94199964 38.86871603 11.13486926 39.8640016 9.32778931 40.85939026 C8.08783723 41.54226227 6.84757945 42.22457946 5.60702515 42.90635681 C1.33602492 45.2555494 -2.91878635 47.63200821 -7.1640625 50.02734375 C-8.29295898 50.66365723 -9.42185547 51.2999707 -10.58496094 51.95556641 C-12.7378034 53.17065395 -14.88954225 54.38769944 -17.04003906 55.60693359 C-18.01424805 56.15559082 -18.98845703 56.70424805 -19.9921875 57.26953125 C-20.84151855 57.75010986 -21.69084961 58.23068848 -22.56591797 58.72583008 C-24.99445952 59.99709972 -27.43849166 61.02863989 -30 62 C-30 62.66 -30 63.32 -30 64 C-30.97030151 64.52787109 -30.97030151 64.52787109 -31.96020508 65.06640625 C-49.0566785 74.37821757 -66.07534418 83.80212274 -82.86572266 93.65600586 C-91.73908321 98.8614287 -100.65336414 103.9932411 -109.59985352 109.07177734 C-115.31745715 112.31830883 -121.01689475 115.58930452 -126.67578125 118.9375 C-127.72306396 119.54972412 -128.77034668 120.16194824 -129.84936523 120.79272461 C-131.81372699 121.94173279 -133.77079798 123.10333159 -135.71899414 124.27954102 C-142.14428661 128.00842606 -142.14428661 128.00842606 -146.5703125 127.96484375 C-149 127 -149 127 -150 125 C-150.11394097 123.63825515 -150.1692656 122.27132881 -150.19287109 120.9050293 C-150.20893402 120.06042648 -150.22499695 119.21582367 -150.24154663 118.34562683 C-150.28601545 114.48115848 -150.3270622 110.61686166 -150.35009766 106.75219727 C-150.36665652 104.71432067 -150.39394558 102.67650214 -150.43212891 100.63891602 C-150.4869124 97.7003772 -150.50877376 94.76319955 -150.5234375 91.82421875 C-150.54610687 90.91572678 -150.56877625 90.0072348 -150.59213257 89.07121277 C-150.57761486 84.72074764 -150.49376313 82.65816645 -147.82080078 79.09521484 C-145.0623025 77.04627662 -142.36516229 75.28810669 -139.34375 73.65234375 C-138.25006104 73.05365479 -137.15637207 72.45496582 -136.02954102 71.83813477 C-135.16705246 71.37372482 -135.16705246 71.37372482 -134.28713989 70.89993286 C-131.84295118 69.58365787 -129.40944097 68.24816134 -126.97499084 66.91398621 C-125.73866495 66.23673763 -124.50179654 65.56047847 -123.26438904 64.88520813 C-117.99349534 62.00746063 -112.76910441 59.0546054 -107.5625 56.0625 C-106.74096436 55.59142822 -105.91942871 55.12035645 -105.07299805 54.63500977 C-103.33937196 53.64051247 -101.60606481 52.64545903 -99.87304688 51.64990234 C-84.45189555 42.79401004 -69.0195688 33.9634294 -53.45556641 25.36035156 C-48.29686733 22.50249998 -43.14823996 19.62663689 -38 16.75 C-36.96077393 16.1710498 -35.92154785 15.59209961 -34.85083008 14.99560547 C-29.22156584 11.84828361 -23.65491695 8.62046017 -18.13476562 5.28564453 C-15.70130913 3.82011595 -13.2577654 2.39741594 -10.75 1.0625 C-9.59757812 0.43021484 -9.59757812 0.43021484 -8.421875 -0.21484375 C-5.21353836 -1.25496579 -3.27334212 -0.77538422 0 0 Z " fill="#878A8E" transform="translate(450,571)"/>
<path d="M0 0 C2.38631353 2.38631353 2.26396219 2.93288983 2.32226562 6.18676758 C2.34148071 7.05139114 2.3606958 7.91601471 2.38049316 8.80683899 C2.38899292 9.74327744 2.39749268 10.67971588 2.40625 11.64453125 C2.41765015 12.60646896 2.42905029 13.56840668 2.4407959 14.55949402 C2.45970994 16.59796744 2.47276946 18.6365022 2.48046875 20.67504883 C2.4998619 23.79031584 2.56187362 26.9029323 2.625 30.01757812 C2.63806225 31.99738015 2.64856234 33.97720106 2.65625 35.95703125 C2.6809436 36.887397 2.70563721 37.81776276 2.7310791 38.77632141 C2.6984602 43.52650318 2.62093712 45.32785446 -0.70874023 48.93212891 C-1.79485596 49.61452637 -2.88097168 50.29692383 -4 51 C-4.87213135 51.54857666 -5.7442627 52.09715332 -6.64282227 52.66235352 C-7.52510498 53.14631592 -8.4073877 53.63027832 -9.31640625 54.12890625 C-10.816875 54.95938477 -10.816875 54.95938477 -12.34765625 55.80664062 C-13.40855469 56.38607422 -14.46945312 56.96550781 -15.5625 57.5625 C-17.82466755 58.81299053 -20.08637975 60.06430515 -22.34765625 61.31640625 C-23.47316895 61.93789551 -24.59868164 62.55938477 -25.75830078 63.19970703 C-30.36352706 65.75724119 -34.93348837 68.37415603 -39.5 71 C-48.19770517 75.99051395 -56.94104637 80.89636057 -65.6965332 85.78466797 C-72.38473881 89.52296807 -79.04494092 93.30628222 -85.6875 97.125 C-93.63866859 101.6926926 -101.66307286 106.11002074 -109.72631836 110.47631836 C-118.96738078 115.49440803 -128.08827577 120.71712521 -137.19433594 125.9753418 C-140.73198894 127.98284986 -142.8762388 128.34400932 -147 128 C-150.8005665 126.169204 -154.21766166 123.80547441 -157.70654297 121.4387207 C-159.37714873 120.31104959 -161.06735298 119.21850154 -162.76171875 118.12695312 C-163.81746094 117.42119141 -164.87320313 116.71542969 -165.9609375 115.98828125 C-166.92821777 115.34415283 -167.89549805 114.70002441 -168.89208984 114.03637695 C-171 112 -171 112 -171.43994141 109.43823242 C-171 107 -171 107 -169 104 C-171.1385485 106.1385485 -171.42655063 107.13275314 -172 110 C-178.09411765 107.85882353 -178.09411765 107.85882353 -180 105 C-180 102.5625 -180 102.5625 -179 100 C-175.63070781 97.00719643 -172.0803143 94.79596699 -168.1328125 92.64453125 C-167.00681641 92.02634521 -165.88082031 91.40815918 -164.72070312 90.77124023 C-164.13297119 90.45113983 -163.54523926 90.13103943 -162.93969727 89.80123901 C-159.88354303 88.13609134 -156.83598301 86.45540733 -153.7890625 84.7734375 C-153.19333435 84.44478195 -152.5976062 84.1161264 -151.98382568 83.7775116 C-146.82953236 80.9247518 -141.77101332 77.93716066 -136.74560547 74.86499023 C-133.29805759 72.76163269 -129.81091773 70.77979258 -126.25 68.875 C-122.55572491 66.89670476 -119.01868515 64.77621158 -115.5 62.5 C-111.14876177 59.69097279 -106.72621441 57.14735942 -102.1640625 54.69921875 C-90.08354671 48.21153434 -78.20435176 41.39355551 -66.37817383 34.45507812 C-58.11471349 29.6197079 -49.7739151 24.93425546 -41.40771484 20.27954102 C-30.86112176 14.39641311 -20.43959023 8.30385125 -10.03344727 2.17651367 C-6.43028717 0.09179419 -4.2097758 -0.26311099 0 0 Z " fill="#878A8E" transform="translate(779,382)"/>
<path d="M0 0 C10.66032653 0.35299094 20.70901539 2.11833858 31.10253906 4.37451172 C34.17706508 5.03822386 37.25620595 5.67731315 40.3359375 6.31640625 C62.02155705 10.89310281 83.44487022 16.6412883 104 25 C104.83402344 25.33161133 105.66804687 25.66322266 106.52734375 26.00488281 C130.49250558 35.54845612 154.03285418 46.42817374 176 60 C176.86641113 60.53061035 177.73282227 61.0612207 178.62548828 61.60791016 C201.38848435 75.60317658 222.82823462 91.40762588 242.41015625 109.62109375 C244.44929395 111.49414784 246.51563953 113.3008081 248.6171875 115.1015625 C253.49119366 119.35296621 258.05742926 123.9069077 262.6184082 128.48803711 C264.06025221 129.93524385 265.50737116 131.37702026 266.95507812 132.81835938 C272.18257491 138.04177161 277.21933161 143.3641639 282 149 C282.88865837 150.02141189 283.77794078 151.04228132 284.66796875 152.0625 C291.84207935 160.42673437 298.50973477 169.09684869 305 178 C305.49113281 178.67015137 305.98226563 179.34030273 306.48828125 180.03076172 C352.66995582 243.28686148 382.39935917 319.83387902 389 398 C389.0942627 399.1044043 389.18852539 400.20880859 389.28564453 401.34667969 C390.17969034 413.45388317 390.22081466 425.56888757 390.24023438 437.70458984 C390.24988891 441.33324567 390.28098617 444.96132118 390.3125 448.58984375 C390.38249668 464.59059701 389.22541695 480.15560184 387 496 C384.36 495.67 381.72 495.34 379 495 C379.05894943 494.40665359 379.11789886 493.81330719 379.17863464 493.20198059 C380.80212347 476.370364 381.34732578 459.63877286 381.31567383 442.7355957 C381.31104521 440.04206631 381.31798141 437.34898892 381.33618164 434.65551758 C381.74049058 374.14628841 367.82422345 315.03465514 343 260 C342.62166016 259.14841309 342.24332031 258.29682617 341.85351562 257.41943359 C324.43125259 218.36009614 299.57752871 181.21776256 270.5546875 149.80078125 C268.59183069 147.6488419 266.68346638 145.47321192 264.78515625 143.265625 C260.58317854 138.44934629 256.09125143 133.94466881 251.5625 129.4375 C250.75490234 128.62603516 249.94730469 127.81457031 249.11523438 126.97851562 C244.2391133 122.11025292 239.23549679 117.4771904 234 113 C232.90515672 112.03900454 231.81135729 111.07681817 230.71875 110.11328125 C222.13623058 102.61596874 213.21591094 95.69870318 204 89 C203.33129883 88.51031738 202.66259766 88.02063477 201.97363281 87.51611328 C175.94635985 68.51256997 147.67914312 52.55517691 118 40 C116.89011719 39.52433594 115.78023437 39.04867187 114.63671875 38.55859375 C111.76767318 37.34637449 108.88725924 36.16809816 106 35 C104.25203125 34.27876953 104.25203125 34.27876953 102.46875 33.54296875 C93.76838944 29.97510508 84.99459163 26.75906529 76 24 C75.15840332 23.74105957 74.31680664 23.48211914 73.44970703 23.21533203 C49.15900134 15.84943031 24.09613091 10.75369479 -1 7 C-0.67 4.69 -0.34 2.38 0 0 Z " fill="#BDC0C5" transform="translate(594,100)"/>
<path d="M0 0 C2.31 0.33 4.62 0.66 7 1 C7.09788116 6.89733975 6.8206841 12.6379183 6.28808594 18.50976562 C-3.16694865 124.85486647 28.62668597 230.66874895 100.015625 326.69921875 C102.15166243 329.24018531 104.32722197 331.7449264 106.51367188 334.24267578 C107.62542267 335.55712752 108.70506265 336.8988575 109.76757812 338.25341797 C116.20607671 346.40509321 123.38670552 353.69156963 130.74658203 361.00732422 C132.8711568 363.1211762 134.98482061 365.24551542 137.09765625 367.37109375 C144.43015132 374.71072582 151.83325463 381.59058847 160 388 C161.10247942 388.93401134 162.19877564 389.87543658 163.28515625 390.828125 C224.00447848 443.77605718 304.36036976 476.30130987 383.70703125 486.61450195 C386 487 386 487 388 488 C388 490.64 388 493.28 388 496 C343.11948202 493.25511229 297.78511544 478.46163848 257 460 C256.0836377 459.58927246 255.16727539 459.17854492 254.22314453 458.75537109 C218.56127986 442.670283 185.94582607 421.06175844 156 396 C155.36658691 395.47100098 154.73317383 394.94200195 154.08056641 394.39697266 C147.79044435 389.12591164 141.62014023 383.83489056 135.92089844 377.91845703 C134.10021093 376.10008357 132.22037364 374.43607235 130.2578125 372.7734375 C125.98786606 369.06217105 122.10149725 365.07670061 118.25 360.9375 C117.55753174 360.19653076 116.86506348 359.45556152 116.15161133 358.69213867 C62.27876344 300.70534162 23.86695171 228.53139813 -3.1072998 38.49920654 C-2.55508846 25.63720556 -1.31280464 12.80333672 0 0 Z " fill="#3C3C3D" transform="translate(100,485)"/>
<path d="M0 0 C2.36820135 2.36820135 2.26318527 2.87459048 2.32226562 6.0949707 C2.34148071 6.93957352 2.3606958 7.78417633 2.38049316 8.65437317 C2.38899292 9.56893784 2.39749268 10.4835025 2.40625 11.42578125 C2.41765015 12.36552292 2.42905029 13.30526459 2.4407959 14.27348328 C2.45970915 16.26487719 2.47276915 18.25633389 2.48046875 20.24780273 C2.49986086 23.29066758 2.56187196 26.33081806 2.625 29.37304688 C2.63806241 31.30727561 2.64856244 33.24152369 2.65625 35.17578125 C2.6809436 36.08427322 2.70563721 36.9927652 2.7310791 37.92878723 C2.69801622 42.63334109 2.59656427 44.35784325 -0.71533203 47.92285156 C-6.47331537 51.56406772 -6.47331537 51.56406772 -9.2109375 53.05859375 C-10.19666748 53.60241699 -11.18239746 54.14624023 -12.19799805 54.70654297 C-13.24640869 55.27775879 -14.29481934 55.84897461 -15.375 56.4375 C-17.61950744 57.67654338 -19.86297034 58.91748051 -22.10546875 60.16015625 C-23.24806152 60.79324707 -24.3906543 61.42633789 -25.56787109 62.07861328 C-30.98118422 65.10911366 -36.33560572 68.23768266 -41.6875 71.375 C-42.68563721 71.95709229 -43.68377441 72.53918457 -44.7121582 73.13891602 C-48.95060256 75.61296575 -53.17857758 78.09862064 -57.3671875 80.65625 C-58.32298706 81.22980225 -58.32298706 81.22980225 -59.2980957 81.81494141 C-60.90440912 82.7800186 -62.50156642 83.7602944 -64.09765625 84.7421875 C-67.94641948 86.41015757 -69.81394754 86.71261036 -74 86 C-77.979003 83.87756251 -81.59131709 81.31566998 -85.25 78.6875 C-86.24257813 77.99720703 -87.23515625 77.30691406 -88.2578125 76.59570312 C-95.46504805 71.54184893 -95.46504805 71.54184893 -97.64746094 69.33129883 C-99.0160677 67.79481844 -99.0160677 67.79481844 -101.5 67.125 C-104.66422269 65.70109979 -105.47679851 64.04640297 -107 61 C-105.40762311 57.51667555 -103.7112434 55.62070811 -100.49609375 53.6796875 C-99.78050293 53.24664307 -99.06491211 52.81359863 -98.32763672 52.36743164 C-94.26034709 49.97799497 -90.16765783 47.63618142 -86.0625 45.3125 C-79.61901321 41.64838052 -73.1919517 37.96206161 -66.8125 34.1875 C-58.66093673 29.36888063 -50.46729441 24.62428309 -42.25219727 19.91479492 C-36.99994676 16.90123361 -31.76246191 13.87203798 -26.57164001 10.7540741 C-24.20609743 9.33454911 -21.83343033 7.92718095 -19.46017456 6.52059937 C-17.78353183 5.52001115 -16.11733505 4.50198506 -14.45141602 3.48364258 C-12.92085571 2.57908325 -12.92085571 2.57908325 -11.359375 1.65625 C-10.46702148 1.11806641 -9.57466797 0.57988281 -8.65527344 0.02539062 C-5.32578602 -1.26036215 -3.40192127 -0.96449291 0 0 Z " fill="#8B8E92" transform="translate(779,473)"/>
<path d="M0 0 C2.51319896 1.28808603 4.59887358 2.51482288 6.875 4.125 C7.47924805 4.53443848 8.08349609 4.94387695 8.70605469 5.36572266 C9.91535019 6.18620098 11.1205504 7.01275236 12.32128906 7.84570312 C14.59611754 9.40989583 16.92571606 10.88565301 19.25 12.375 C22.06315547 14.18345709 23.07553303 15.11329954 25 18 C25.61875 18.144375 26.2375 18.28875 26.875 18.4375 C29.88360412 19.23389521 31.14890828 20.53187771 33 23 C32.81060173 25.96390653 32.54131801 27.48405122 30.36425781 29.55908203 C29.65108398 29.99591309 28.93791016 30.43274414 28.203125 30.8828125 C27.38779297 31.3871582 26.57246094 31.89150391 25.73242188 32.41113281 C20.77177528 35.29568321 15.77828281 38.11003307 10.75 40.875 C3.27028618 45.02441284 -4.11749971 49.22306131 -11.359375 53.7734375 C-17.6559736 57.67434799 -24.11945185 61.30486864 -30.5456543 64.98632812 C-35.86607914 68.03460295 -41.17756781 71.09253923 -46.44648743 74.22920227 C-48.8085098 75.63469841 -51.17600953 77.0308234 -53.54385376 78.42648315 C-55.21711769 79.41801482 -56.88246084 80.42287449 -58.54760742 81.42797852 C-60.07865112 82.32794556 -60.07865112 82.32794556 -61.640625 83.24609375 C-62.53297852 83.77904053 -63.42533203 84.3119873 -64.34472656 84.86108398 C-67.49678295 86.21308316 -69.60326445 86.4282259 -73 86 C-74.99921124 84.46894189 -75.88338118 83.56817839 -76.39440918 81.07839966 C-76.40282837 80.35401703 -76.41124756 79.6296344 -76.41992188 78.88330078 C-76.44378967 77.64654099 -76.44378967 77.64654099 -76.46813965 76.38479614 C-76.46834106 75.49726654 -76.46854248 74.60973694 -76.46875 73.6953125 C-76.47636353 72.77918182 -76.48397705 71.86305115 -76.49182129 70.91915894 C-76.50262763 68.98080165 -76.50547322 67.0423861 -76.50097656 65.10400391 C-76.50000576 62.14256166 -76.54158802 59.18372322 -76.5859375 56.22265625 C-76.59114571 54.33854707 -76.59383267 52.45442888 -76.59375 50.5703125 C-76.61014526 49.68683136 -76.62654053 48.80335022 -76.64343262 47.89309692 C-76.59536095 43.60113949 -76.46436343 41.61344008 -73.80981445 38.10668945 C-71.08944231 36.06706036 -68.44153129 34.33514788 -65.44921875 32.72265625 C-64.36979004 32.13355469 -63.29036133 31.54445313 -62.17822266 30.9375 C-61.02628418 30.31875 -59.8743457 29.7 -58.6875 29.0625 C-56.24871074 27.73519104 -53.81367059 26.40108106 -51.37890625 25.06640625 C-50.7625531 24.72940704 -50.14619995 24.39240784 -49.51116943 24.04519653 C-43.31403545 20.6466339 -37.21570763 17.08531361 -31.125 13.5 C-28.25265491 11.81980398 -25.37920517 10.14151482 -22.50537109 8.46386719 C-20.94177897 7.55027351 -19.37939233 6.63460977 -17.81884766 5.71582031 C-16.03392602 4.67027071 -14.23632085 3.64645129 -12.4375 2.625 C-11.52871094 2.10164062 -10.61992187 1.57828125 -9.68359375 1.0390625 C-6.1663714 -0.32277323 -3.75126476 -0.44084504 0 0 Z " fill="#8C8F93" transform="translate(376,522)"/>
<path d="M0 0 C-1.19343066 6.96167883 -1.19343066 6.96167883 -3 10 C-4.093125 10.309375 -5.18625 10.61875 -6.3125 10.9375 C-11.14210178 12.32908017 -12.17895068 13.9343701 -15 18 C-16.54799337 22.64398011 -16.49594333 27.32517708 -15 32 C-13.783125 32.103125 -12.56625 32.20625 -11.3125 32.3125 C-10.28576172 32.39951172 -10.28576172 32.39951172 -9.23828125 32.48828125 C-4.79310734 31.51856617 -2.4719102 27.69985884 -0.04296875 24.09765625 C0.56933594 23.09605469 1.18164062 22.09445312 1.8125 21.0625 C5.58198525 15.33768252 9.25962312 10.01752553 16.29296875 8.5078125 C21.63007426 8.20385674 24.8964239 9.45600246 29 13 C29.94875 13.763125 30.8975 14.52625 31.875 15.3125 C35.90225915 20.42151484 34.69020472 27.94153631 34 34 C32.14418038 40.98893774 28.24118739 46.79009951 22.25 50.875 C18.0668237 52.32302257 14.37973856 52.26278431 10 52 C8.72450717 49.44901433 9.13712898 48.66705587 10 46 C10.84765625 43.828125 10.84765625 43.828125 12 42 C15.4375 40.75 15.4375 40.75 19 40 C21.27238472 38.08641287 22.67797068 36.64405865 24 34 C24.07065617 31.95944995 24.08421976 29.91665743 24.0625 27.875 C24.05347656 26.77929688 24.04445313 25.68359375 24.03515625 24.5546875 C24.02355469 23.71164062 24.01195312 22.86859375 24 22 C20.74360341 21.05728998 20.74360341 21.05728998 17 21 C12.3643937 24.9064098 9.22002817 29.80627627 5.92578125 34.828125 C2.74435749 39.47401367 -1.2339421 44.22389138 -6.99975586 45.41210938 C-11.72569005 45.61347478 -15.12196204 44.61346036 -19 42 C-23.70678541 37.33730626 -26.12548482 33.77191798 -26.3125 27 C-26.19240711 17.90896828 -23.24795616 10.18056549 -16.921875 3.59765625 C-11.5647642 -0.85571431 -6.63921009 -1.52148565 0 0 Z " fill="#484856" transform="translate(942,657)"/>
<path d="M0 0 C0.66 0.33 1.32 0.66 2 1 C1.38489386 6.27233832 1.38489386 6.27233832 0 9 C-2.19714931 10.33290858 -4.39531551 11.13255698 -6.80078125 12.02734375 C-10.32938951 13.5879538 -11.48847615 15.5169233 -13 19 C-13.45244815 22.0724386 -13.64459617 24.95123435 -13 28 C-11.26388454 30.17259647 -10.39500464 30.89324199 -7.6875 31.625 C-1.1233128 30.09844484 3.33868622 20.80480336 6.97265625 15.55078125 C9.53651117 12.32496764 12.30289665 9.84855167 16 8 C22.2700835 7.45947556 26.88319068 8.1596655 32 12 C36.01148782 16.04062695 37.34471026 20.11470104 37.625 25.75 C37.24708555 34.51983834 33.85227568 42.48269299 28 49 C22.86552542 52.76456225 18.23441366 53.44531526 12 53 C10.99961143 50.39898972 11.03247456 48.73479112 11.375 45.9375 C13 43 13 43 14.96484375 42.23046875 C16.12693359 41.93076172 16.12693359 41.93076172 17.3125 41.625 C21.08032808 40.58580871 22.85809737 39.57476251 25.0625 36.3125 C27.36218999 31.97662616 27.72707633 28.84717555 27 24 C25.08412497 21.16166662 23.8934755 20.25863765 20.625 19.3125 C14.79384111 20.83970828 11.71118605 27.40017119 8.5 32.125 C5.31045196 36.77141477 2.12371487 40.43814256 -3 43 C-7.65048294 43.56735892 -11.09730577 43.4598631 -15.3125 41.3125 C-19.78204044 37.46661636 -22.68351961 34.22357887 -23.2734375 28.21484375 C-23.55292894 19.19587011 -22.29873704 12.574726 -15.9921875 5.86328125 C-10.69661733 1.04646188 -7.28990737 -0.26508754 0 0 Z " fill="#494956" transform="translate(131,363)"/>
<path d="M0 0 C1.92115346 5.61910512 3.84170127 11.23841677 5.76171875 16.85791016 C6.41325014 18.76454081 7.06493919 20.6711176 7.71679688 22.57763672 C9.55116563 27.94288399 11.38170391 33.30940929 13.20776367 38.67749023 C13.91587798 40.75338898 14.62967343 42.82721263 15.34570312 44.90039062 C15.89387695 46.50430664 15.89387695 46.50430664 16.453125 48.140625 C16.91187012 49.4714209 16.91187012 49.4714209 17.37988281 50.82910156 C18 53 18 53 18 56 C14.7 56.99 11.4 57.98 8 59 C7.03599018 56.50206261 6.07872453 54.00186341 5.125 51.5 C4.85558594 50.80390625 4.58617187 50.1078125 4.30859375 49.390625 C2.50767625 44.64674476 1.14685837 39.94373899 0 35 C-2.00523343 38.00785015 -3.1392638 40.72379246 -4.42578125 44.09375 C-4.89306641 45.28871094 -5.36035156 46.48367188 -5.84179688 47.71484375 C-6.58014644 49.60798481 -7.31342824 51.50245162 -8.03295898 53.40283203 C-8.73208206 55.2431321 -9.45368844 57.07484088 -10.17578125 58.90625 C-10.59770752 60.00259766 -11.01963379 61.09894531 -11.4543457 62.22851562 C-13.95931627 66.7201324 -18.20595436 68.48609085 -23 70 C-24.485 69.505 -24.485 69.505 -26 69 C-25.63124756 68.13721436 -25.26249512 67.27442871 -24.88256836 66.38549805 C-23.52006033 63.18503806 -22.16621987 59.98119699 -20.81811523 56.7746582 C-20.23268978 55.38713332 -19.64383838 54.00104877 -19.05151367 52.61645508 C-18.20108459 50.626893 -17.36307853 48.63248992 -16.52734375 46.63671875 C-16.01937256 45.43748779 -15.51140137 44.23825684 -14.98803711 43.00268555 C-13.66866122 39.99916898 -13.66866122 39.99916898 -15 37 C-16.7135255 35.51495306 -16.7135255 35.51495306 -18.8671875 34.14453125 C-20.06541138 33.339552 -20.06541138 33.339552 -21.2878418 32.51831055 C-22.141604 31.95539307 -22.99536621 31.39247559 -23.875 30.8125 C-25.60890783 29.6496815 -27.34198414 28.48562211 -29.07421875 27.3203125 C-29.91774902 26.75473633 -30.7612793 26.18916016 -31.63037109 25.60644531 C-36.17508813 22.52543994 -40.5947502 19.27671389 -45 16 C-43.62341097 13.24682195 -42.26978013 12.84827055 -39.4375 11.6875 C-36.29612687 10.85716309 -34.10896601 10.52002916 -31.07421875 11.83349609 C-26.74293704 14.37023949 -22.79881436 17.43161671 -18.86669922 20.54052734 C-16.31872185 22.53265509 -13.66755197 24.35994312 -11 26.1875 C-9.66615076 27.12426583 -8.3325793 28.06142852 -7 29 C-5.36731513 21.16842217 -6.15563755 15.83528997 -9.125 8.453125 C-10 6 -10 6 -10 3 C-8.70990357 2.49596232 -7.41786211 1.99690074 -6.125 1.5 C-5.40570312 1.2215625 -4.68640625 0.943125 -3.9453125 0.65625 C-2 0 -2 0 0 0 Z " fill="#484856" transform="translate(688,914)"/>
<path d="M0 0 C-1.26125168 3.94880235 -2.69375196 7.70799856 -4.41796875 11.4765625 C-4.86720703 12.476875 -5.31644531 13.4771875 -5.77929688 14.5078125 C-6.72302133 16.59683362 -7.67362268 18.68276086 -8.63085938 20.765625 C-9.07623047 21.76335937 -9.52160156 22.76109375 -9.98046875 23.7890625 C-10.39192139 24.69350098 -10.80337402 25.59793945 -11.22729492 26.52978516 C-12.08724484 29.27890782 -12.19486648 30.39628665 -11 33 C-9.42400719 34.58319194 -9.42400719 34.58319194 -7.38671875 35.91796875 C-6.63825684 36.44624268 -5.88979492 36.9745166 -5.11865234 37.51879883 C-4.31637207 38.06947021 -3.5140918 38.6201416 -2.6875 39.1875 C-1.04753763 40.34023663 0.59178301 41.49388677 2.23046875 42.6484375 C3.03919434 43.21401367 3.84791992 43.77958984 4.68115234 44.36230469 C7.87562781 46.6184156 11.00712449 48.95214845 14.125 51.3125 C15.07632813 52.03050781 16.02765625 52.74851563 17.0078125 53.48828125 C17.66523438 53.98714844 18.32265625 54.48601562 19 55 C10.33511863 59.47980261 10.33511863 59.47980261 5 59 C0.78396828 56.54881877 -2.75174025 53.54802459 -6.41162109 50.34521484 C-8.76390491 48.35304088 -11.27228151 46.6175827 -13.8125 44.875 C-14.62332031 44.31554687 -15.43414062 43.75609375 -16.26953125 43.1796875 C-16.84058594 42.79039062 -17.41164063 42.40109375 -18 42 C-20.02228421 45.03342632 -20.66790768 46.43894849 -21 50 C-20.26018813 53.25106312 -20.26018813 53.25106312 -19.0625 56.5625 C-17.75731447 60.38956942 -17 62.92101882 -17 67 C-21.95 67.99 -21.95 67.99 -27 69 C-27.51949219 67.44152344 -28.03898437 65.88304687 -28.57421875 64.27734375 C-28.90969727 63.27106934 -29.24517578 62.26479492 -29.59082031 61.22802734 C-30.32623642 59.02145158 -31.06125796 56.81474427 -31.79589844 54.60791016 C-34.13620719 47.5786529 -34.13620719 47.5786529 -36.50390625 40.55859375 C-44 18.39929467 -44 18.39929467 -44 13 C-40.7 12.34 -37.4 11.68 -34 11 C-26.73573236 28.53443913 -26.73573236 28.53443913 -27 36 C-26.34 36 -25.68 36 -25 36 C-24.88519287 35.30092529 -24.77038574 34.60185059 -24.65209961 33.8815918 C-23.38390275 28.27750062 -20.81053411 23.08266891 -18.5625 17.8125 C-18.05912109 16.61173828 -17.55574219 15.41097656 -17.03710938 14.17382812 C-16.55177734 13.02978516 -16.06644531 11.88574219 -15.56640625 10.70703125 C-15.12240479 9.6600708 -14.67840332 8.61311035 -14.22094727 7.53442383 C-12.84189264 4.67180314 -11.86855497 3.35325557 -8.90625 2.1484375 C-8.1121875 1.89320312 -7.318125 1.63796875 -6.5 1.375 C-5.7059375 1.11460938 -4.911875 0.85421875 -4.09375 0.5859375 C-2 0 -2 0 0 0 Z " fill="#484856" transform="translate(428,94)"/>
<path d="M0 0 C2.46800047 1.15173355 4.04783565 2.04783565 6 4 C8.52475676 13.75221978 9.66701871 23.99231117 11.1875 33.9375 C11.36651855 35.08597412 11.54553711 36.23444824 11.72998047 37.41772461 C12.66448904 43.69078437 13.19502394 49.65835945 13 56 C20.42764058 49.75744924 27.19232082 42.90107721 34 36 C36.8605891 37.35937085 38.85927699 38.64520469 41 41 C39.34505714 45.26705487 36.15086959 48.1371993 32.96875 51.296875 C32.37703003 51.89050842 31.78531006 52.48414185 31.17565918 53.09576416 C29.92734419 54.34543718 28.67651177 55.59259992 27.42333984 56.83740234 C25.49992003 58.75007952 23.58743901 60.67323119 21.67578125 62.59765625 C20.46157861 63.81053798 19.24675607 65.02279952 18.03125 66.234375 C17.45725464 66.81241882 16.88325928 67.39046265 16.29187012 67.98602295 C12.22993434 72 12.22993434 72 10 72 C6.43027592 68.34041233 5.35171051 65.40658631 4.5859375 60.40625 C4.38226562 59.1275 4.17859375 57.84875 3.96875 56.53125 C3.77045721 55.18755545 3.57254195 53.84380514 3.375 52.5 C3.17132812 51.200625 2.96765625 49.90125 2.7578125 48.5625 C2.35361839 45.97151209 1.95721264 43.37929645 1.56884766 40.78588867 C0.86604312 36.10846807 0.11801956 31.43857246 -0.63378906 26.76879883 C-1.11504883 23.13015414 -1.14366866 19.66355072 -1 16 C-8.83514917 22.47251453 -15.86788775 29.77773464 -23 37 C-25.8605891 35.64062915 -27.85927699 34.35479531 -30 32 C-28.71977125 29.19030533 -27.39285871 27.1460762 -25.20263672 24.97558594 C-24.64220673 24.41530701 -24.08177673 23.85502808 -23.50436401 23.277771 C-22.90222076 22.68595032 -22.30007751 22.09412964 -21.6796875 21.484375 C-21.06102814 20.86854553 -20.44236877 20.25271606 -19.80496216 19.6182251 C-17.83296186 17.65739664 -15.85411263 15.70364699 -13.875 13.75 C-12.53469836 12.41973201 -11.19484917 11.089008 -9.85546875 9.7578125 C-6.57553411 6.4998985 -3.28944058 3.24831467 0 0 Z " fill="#484856" transform="translate(837,810)"/>
<path d="M0 0 C2.46800047 1.15173355 4.04783565 2.04783565 6 4 C6.55810547 6.26879883 6.55810547 6.26879883 6.9921875 9.14453125 C7.15686523 10.22428223 7.32154297 11.3040332 7.49121094 12.41650391 C7.65911133 13.59905762 7.82701172 14.78161133 8 16 C8.26345215 17.85310791 8.26345215 17.85310791 8.53222656 19.74365234 C8.98867458 23.04606621 9.43088094 26.34947771 9.85986328 29.65551758 C10.12614454 31.69627162 10.4009036 33.73577896 10.67578125 35.77539062 C11.57018752 42.55874306 12.2264814 49.15271237 12 56 C12.66 56 13.32 56 14 56 C14 55.34 14 54.68 14 54 C15.328125 52.6953125 15.328125 52.6953125 17.25 51.125 C23.17833782 46.10297282 28.55174107 40.52998282 34 35 C36.8605891 36.35937085 38.85927699 37.64520469 41 40 C39.64941886 43.01388073 38.14395225 45.1034677 35.8046875 47.42578125 C35.17498047 48.05427979 34.54527344 48.68277832 33.89648438 49.33032227 C33.22939453 49.98444092 32.56230469 50.63855957 31.875 51.3125 C31.19501953 51.98531006 30.51503906 52.65812012 29.81445312 53.35131836 C25.3512273 57.74247056 20.81489646 61.99488158 16 66 C14.66555733 67.14454121 13.33218941 68.2903369 12 69.4375 C11.01 70.283125 10.02 71.12875 9 72 C6.65370004 70.35759002 5.23350725 68.82616161 4.44506836 66.03662109 C2.6451311 55.47684889 1.40968742 44.83873233 0.10180664 34.20922852 C-0.22208101 31.5857149 -0.55031611 28.96277185 -0.87890625 26.33984375 C-0.97683975 25.53159653 -1.07477325 24.7233493 -1.17567444 23.89060974 C-1.62455128 19.81825189 -1.62455128 19.81825189 -3 16 C-3.7734375 16.78503906 -4.546875 17.57007813 -5.34375 18.37890625 C-11.04906626 24.14292673 -16.76924293 29.79548527 -23 35 C-25.8605891 33.64062915 -27.85927699 32.35479531 -30 30 C-28.40382726 25.77365581 -25.22930523 23.23071405 -21.9375 20.3125 C-20.75639798 19.24635662 -19.57671764 18.17863624 -18.3984375 17.109375 C-17.81932617 16.58408203 -17.24021484 16.05878906 -16.64355469 15.51757812 C-14.38312524 13.43040798 -12.21929195 11.25609727 -10.0625 9.0625 C-6.85731458 5.81000557 -3.57380826 2.84071939 0 0 Z " fill="#484856" transform="translate(239,193)"/>
<path d="M0 0 C2.79007312 3.3512256 4.44478709 7.00269644 6.16015625 10.96875 C15.54708914 32.2509043 15.54708914 32.2509043 33.625 46.20703125 C34.73875 46.79871094 35.8525 47.39039063 37 48 C37 51.99904969 35.27413033 53.80200422 33 57 C28.83806392 56.61886499 26.54099962 55.02919906 23.31825256 52.46310425 C13.38801715 44.74034928 3.78109176 44.26435196 -8.4375 43.875 C-10.34461411 43.78023657 -12.25152576 43.68130336 -14.15820312 43.578125 C-18.77121926 43.33741296 -23.38327088 43.15281466 -28 43 C-27.70222656 42.40703125 -27.40445313 41.8140625 -27.09765625 41.203125 C-26.19575443 39.39290213 -25.31381951 37.57274459 -24.4375 35.75 C-22 33 -22 33 -20.08984375 32.58203125 C-17.68900644 32.56085985 -15.38624983 32.73444555 -13 33 C-12.17757812 33.08121094 -11.35515625 33.16242188 -10.5078125 33.24609375 C-8.91999163 33.40685443 -7.33361428 33.58329821 -5.75 33.78125 C-1.83274455 34.09284987 2.07256629 34.03850425 6 34 C5.63124756 33.32420898 5.26249512 32.64841797 4.88256836 31.95214844 C3.22156964 28.8914317 1.57940252 25.82099979 -0.0625 22.75 C-0.64322266 21.68652344 -1.22394531 20.62304688 -1.82226562 19.52734375 C-2.63920898 17.99013672 -2.63920898 17.99013672 -3.47265625 16.421875 C-3.98062744 15.47924805 -4.48859863 14.53662109 -5.01196289 13.56542969 C-6.09314421 10.75815189 -6.12497891 9.7359487 -5 7 C-3.80859375 5.078125 -3.80859375 5.078125 -2.4375 3.25 C-1.98246094 2.63640625 -1.52742188 2.0228125 -1.05859375 1.390625 C-0.70925781 0.93171875 -0.35992187 0.4728125 0 0 Z " fill="#484856" transform="translate(171,266)"/>
<path d="M0 0 C-0.01123901 0.90371338 -0.01123901 0.90371338 -0.02270508 1.82568359 C-0.00323034 17.61220258 3.05691618 26.99282473 13.28271484 38.94970703 C15.97843638 42.16817014 18.38982621 45.57427146 20.8125 49 C21.23853516 49.58209229 21.66457031 50.16418457 22.10351562 50.76391602 C25 54.76598896 25 54.76598896 25 57 C19.06 57.495 19.06 57.495 13 58 C12.5153125 57.26136719 12.030625 56.52273438 11.53125 55.76171875 C10.8609375 54.74722656 10.190625 53.73273437 9.5 52.6875 C8.8503125 51.70136719 8.200625 50.71523438 7.53125 49.69921875 C4.1662913 44.69721351 0.56389386 39.86099817 -3 35 C-3.48412354 36.1281311 -3.48412354 36.1281311 -3.97802734 37.27905273 C-5.43691147 40.66816489 -6.90580635 44.05284512 -8.375 47.4375 C-8.88289062 48.62150391 -9.39078125 49.80550781 -9.9140625 51.02539062 C-10.40390625 52.15009766 -10.89375 53.27480469 -11.3984375 54.43359375 C-11.84880371 55.47572021 -12.29916992 56.51784668 -12.76318359 57.59155273 C-14 60 -14 60 -16 61 C-17.70702735 61.06996014 -19.41668003 61.08440154 -21.125 61.0625 C-22.41639893 61.0459436 -22.41639893 61.0459436 -23.73388672 61.02905273 C-24.4817041 61.01946533 -25.22952148 61.00987793 -26 61 C-23.97245397 55.53206839 -21.70766434 50.32139597 -18.94921875 45.1796875 C-10.91062467 29.85596612 -8.29500908 18.1612486 -11 1 C-7.26616906 0.30533378 -3.79269127 -0.05168915 0 0 Z " fill="#484856" transform="translate(583,939)"/>
<path d="M0 0 C-2.117017 7.4095595 -5.37004666 14.00949055 -8.8671875 20.83984375 C-9.20371338 21.51015625 -9.54023926 22.18046875 -9.88696289 22.87109375 C-10.66634912 24.36182592 -11.49590687 25.82689691 -12.36108398 27.26953125 C-16.3566721 34.27332052 -16.61308319 40.17110648 -16.3125 48.125 C-16.27866211 49.84589844 -16.27866211 49.84589844 -16.24414062 51.6015625 C-16.18580616 54.40161668 -16.09614923 57.20098916 -16 60 C-19.63 60 -23.26 60 -27 60 C-26.90074219 58.69933594 -26.80148437 57.39867187 -26.69921875 56.05859375 C-26.31397954 37.1141955 -35.83233688 24.82915654 -46.84959412 10.36541748 C-50 6.20227849 -50 6.20227849 -50 4 C-48.4375 3.5 -48.4375 3.5 -46 3 C-44.906875 2.773125 -43.81375 2.54625 -42.6875 2.3125 C-38.3325581 3.12443832 -38.01120169 3.75584804 -35.5625 7.25 C-34.36014016 9.15737993 -33.173913 11.07498165 -32 13 C-30.53938515 15.22113283 -29.04921307 17.42110492 -27.5625 19.625 C-26.37383403 21.41589332 -25.18590687 23.20727844 -24 25 C-21.84115038 22.28854644 -20.28768005 19.7012295 -18.9140625 16.5234375 C-18.54023437 15.688125 -18.16640625 14.8528125 -17.78125 13.9921875 C-17.00879342 12.2437216 -16.24579041 10.49104936 -15.4921875 8.734375 C-12.62215323 2.38491563 -12.62215323 2.38491563 -9.44921875 0.421875 C-6.26633052 -0.12637369 -3.22165775 -0.12633952 0 0 Z " fill="#484856" transform="translate(533,80)"/>
<path d="M0 0 C1.37207031 1.55053711 1.37207031 1.55053711 2.578125 3.52734375 C3.01640625 4.23697266 3.4546875 4.94660156 3.90625 5.67773438 C4.57140625 6.79631836 4.57140625 6.79631836 5.25 7.9375 C5.70890625 8.67935547 6.1678125 9.42121094 6.640625 10.18554688 C10 15.69952102 10 15.69952102 10 18 C10.76570312 18.20882812 11.53140625 18.41765625 12.3203125 18.6328125 C17.46017072 20.54252628 22.09447218 23.20635194 26.875 25.875 C33.19341119 29.37954386 39.50930766 32.82370375 46 36 C46 36.66 46 37.32 46 38 C44.42578125 39.32421875 44.42578125 39.32421875 42.3125 40.6875 C41.28576172 41.37392578 41.28576172 41.37392578 40.23828125 42.07421875 C37.33175487 43.27639458 36.01868709 42.81655705 33 42 C31.20204994 41.15557257 29.43562213 40.24201229 27.69921875 39.27734375 C26.72275391 38.73916016 25.74628906 38.20097656 24.74023438 37.64648438 C23.73283203 37.08251953 22.72542969 36.51855469 21.6875 35.9375 C20.66076172 35.36966797 19.63402344 34.80183594 18.57617188 34.21679688 C16.0473982 32.81715005 13.52222964 31.41139489 11 30 C11.0721875 31.00417969 11.144375 32.00835938 11.21875 33.04296875 C11.47014655 36.63895557 11.67308476 40.23643306 11.86669922 43.8359375 C11.9889384 45.82042116 12.16562053 47.80135586 12.34765625 49.78125 C12.55282505 53.03410813 12.66922296 55.80832126 12 59 C9.68387057 61.58520141 7.28260427 62.9255733 4 64 C3.34 64 2.68 64 2 64 C1.97494385 63.08299316 1.9498877 62.16598633 1.92407227 61.22119141 C1.82813712 57.77318225 1.72896017 54.32529633 1.62768555 50.87744141 C1.5847477 49.39375369 1.54304988 47.91002949 1.50268555 46.42626953 C1.37130793 41.61557793 1.19606917 36.80849572 1 32 C0.97929443 31.02514648 0.95858887 30.05029297 0.93725586 29.04589844 C0.61118037 22.45292012 -1.75236026 18.29899584 -5.5625 13 C-6.58810198 11.52323482 -7.61041793 10.04418026 -8.62890625 8.5625 C-9.08338135 7.92441406 -9.53785645 7.28632812 -10.00610352 6.62890625 C-11 5 -11 5 -11 3 C-3.93586245 -1.48301037 -3.93586245 -1.48301037 0 0 Z " fill="#484856" transform="translate(757,881)"/>
<path d="M0 0 C5.05551887 1.73902247 9.18320616 4.70709133 13.4765625 7.81054688 C18.16524834 10.9936436 22.36251362 11.79319674 28 12 C29.83860596 12.0786731 29.83860596 12.0786731 31.71435547 12.15893555 C35.996215 12.32785634 40.27893351 12.44665125 44.5625 12.5625 C46.06316078 12.60578362 47.56381197 12.6494007 49.06445312 12.69335938 C52.70953299 12.79941797 56.35472182 12.90096257 60 13 C59.08836059 17.07527158 57.79755138 19.8124054 55 23 C52.0362967 23.49918308 49.92954908 23.62288145 47 23.4375 C46.30777344 23.41880859 45.61554687 23.40011719 44.90234375 23.38085938 C38.58838288 23.16886613 32.29122048 22.55420756 26 22 C26.39904541 22.70084717 26.79809082 23.40169434 27.20922852 24.1237793 C29.00864196 27.30347099 30.78569733 30.49512285 32.5625 33.6875 C33.19091797 34.79029297 33.81933594 35.89308594 34.46679688 37.02929688 C35.05654297 38.09599609 35.64628906 39.16269531 36.25390625 40.26171875 C36.80377197 41.24100342 37.3536377 42.22028809 37.92016602 43.22924805 C39.16448719 46.42205858 39.0934742 47.7922756 38 51 C36.7295036 53.04049422 35.40568804 55.05017465 34 57 C30.88278941 54.34163807 29.39146385 51.1671438 27.56640625 47.5390625 C27.24719711 46.91148041 26.92798798 46.28389832 26.59910583 45.63729858 C25.58134415 43.635958 24.57104084 41.63100146 23.5625 39.625 C22.23707022 36.98877903 20.90406068 34.35659774 19.56640625 31.7265625 C18.97802979 30.55689941 18.38965332 29.38723633 17.78344727 28.18212891 C15.22654481 23.61995689 12.67856397 20.07427468 8.14453125 17.39453125 C7.44005859 16.96849609 6.73558594 16.54246094 6.00976562 16.10351562 C5.28466797 15.67748047 4.55957031 15.25144531 3.8125 14.8125 C2.35802114 13.94846575 0.90605723 13.08017938 -0.54296875 12.20703125 C-1.18258545 11.8303833 -1.82220215 11.45373535 -2.48120117 11.06567383 C-4 10 -4 10 -5 8 C-4.00390625 6.0546875 -4.00390625 6.0546875 -2.5625 3.875 C-2.08941406 3.15054688 -1.61632812 2.42609375 -1.12890625 1.6796875 C-0.75636719 1.12539063 -0.38382813 0.57109375 0 0 Z " fill="#484856" transform="translate(882,750)"/>
<path d="M0 0 C-0.02731201 1.14251221 -0.05462402 2.28502441 -0.08276367 3.4621582 C-1.41156209 33.80092928 -1.41156209 33.80092928 12 60 C8.98112756 63.48331435 6.43090471 64.79157144 2 66 C1.40832031 64.90300781 0.81664062 63.80601562 0.20703125 62.67578125 C-0.59069379 61.22110618 -1.38889626 59.76669286 -2.1875 58.3125 C-2.57486328 57.59126953 -2.96222656 56.87003906 -3.36132812 56.12695312 C-3.75126953 55.42119141 -4.14121094 54.71542969 -4.54296875 53.98828125 C-5.0692688 53.02208862 -5.0692688 53.02208862 -5.60620117 52.03637695 C-8.96817998 47.12443699 -13.02956035 44.1600884 -18.21875 41.37109375 C-18.79911011 41.05471451 -19.37947021 40.73833527 -19.97741699 40.41236877 C-21.81391392 39.4124238 -23.65632146 38.42413154 -25.5 37.4375 C-27.34289112 36.44597335 -29.18423785 35.45185114 -31.02258301 34.45191956 C-32.68957888 33.5459165 -34.36126367 32.64855639 -36.03320312 31.75170898 C-38.92449711 30.04457976 -41.43707983 28.16253799 -44 26 C-41.03 24.02 -38.06 22.04 -35 20 C-26.32438485 24.13760107 -18.18843115 28.98868013 -10 34 C-10.04713135 33.18321777 -10.0942627 32.36643555 -10.14282227 31.52490234 C-10.33038953 27.80890734 -10.44708567 24.09390624 -10.5625 20.375 C-10.63791016 19.08980469 -10.71332031 17.80460937 -10.79101562 16.48046875 C-11.00916604 7.12423992 -11.00916604 7.12423992 -7.99169922 3.76269531 C-2.40959362 0 -2.40959362 0 0 0 Z " fill="#494956" transform="translate(330,131)"/>
</svg>
