<?xml version="1.0" encoding="UTF-8"?>
<svg version="1.1" xmlns="http://www.w3.org/2000/svg" width="1600" height="1532">
<path d="M0 0 C5.10121829 3.77857013 10.3253277 7.31850647 15.6328125 10.80078125 C16.48217377 11.35811447 17.33153503 11.91544769 18.20663452 12.4896698 C20.00976497 13.67123745 21.81337868 14.85206791 23.61743164 16.03222656 C39.81126368 26.62958881 55.92134677 37.34300998 71.9453125 48.1953125 C86.37758363 57.96697018 100.87632823 67.62869838 115.4453125 77.1953125 C130.91335095 87.35228379 146.29337823 97.62963645 161.61651611 108.00378418 C174.36497197 116.63170653 187.1716769 125.16441457 200.03717041 133.61682129 C214.27813099 142.9729628 228.51334888 152.33811937 242.66290283 161.83215332 C244.23945024 162.88856759 245.81779696 163.94230274 247.39813232 164.99304199 C266.30555288 177.57270602 282.97095219 191.72096332 287.99438477 214.89233398 C291.97413366 235.92672017 287.20892992 254.66053336 275.3125 272.296875 C267.92693691 281.63718513 258.52991178 287.87600407 248.1953125 293.5078125 C246.9555772 294.19777787 245.71665872 294.88921273 244.47851562 295.58203125 C241.98378073 296.97555562 239.48513503 298.36157973 236.98242188 299.74072266 C231.94689711 302.51794132 226.94764791 305.35889558 221.9453125 308.1953125 C220.07429598 309.25143892 218.20320107 310.30742647 216.33203125 311.36328125 C209.79574067 315.05789926 203.27577173 318.78098928 196.7578125 322.5078125 C196.1724472 322.84246521 195.58708191 323.17711792 194.98397827 323.52191162 C189.01968091 326.93198254 183.05685738 330.34461919 177.09571838 333.76020813 C174.15020362 335.44770281 171.20413997 337.13423725 168.2578125 338.8203125 C167.38698532 339.31874161 167.38698532 339.31874161 166.49856567 339.82723999 C158.25837972 344.54146756 149.98784227 349.19878918 141.6953125 353.8203125 C133.59809925 358.33306421 125.56252056 362.93669947 117.5703125 367.6328125 C107.96953379 373.27409982 98.26579626 378.70743518 88.51660156 384.08740234 C81.05882494 388.21386774 73.66878619 392.43994905 66.3203125 396.7578125 C57.30088919 402.05750328 48.21272101 407.21674073 39.07495117 412.30932617 C31.23404106 416.68303931 23.42499535 421.11053269 15.6328125 425.5703125 C15.05135468 425.90301147 14.46989685 426.23571045 13.87081909 426.57849121 C9.7280883 428.94920301 5.58655211 431.32199706 1.4453125 433.6953125 C-3.28302768 436.40509117 -8.01198678 439.1137827 -12.7421875 441.8203125 C-13.32292023 442.15268921 -13.90365295 442.48506592 -14.50198364 442.82751465 C-22.74198368 447.54165653 -31.01233577 452.19888841 -39.3046875 456.8203125 C-47.40190075 461.33306421 -55.43747944 465.93669947 -63.4296875 470.6328125 C-73.03046621 476.27409982 -82.73420374 481.70743518 -92.48339844 487.08740234 C-99.94117506 491.21386774 -107.33121381 495.43994905 -114.6796875 499.7578125 C-123.69911081 505.05750328 -132.78727899 510.21674073 -141.92504883 515.30932617 C-149.76595894 519.68303931 -157.57500465 524.11053269 -165.3671875 528.5703125 C-165.94864532 528.90301147 -166.53010315 529.23571045 -167.12918091 529.57849121 C-171.2719117 531.94920301 -175.41344789 534.32199706 -179.5546875 536.6953125 C-193.38136465 544.61928442 -207.21318598 552.53240087 -221.1171875 560.3203125 C-222.10936279 560.87605957 -223.10153809 561.43180664 -224.1237793 562.00439453 C-226.00486668 563.05550107 -227.8880163 564.10292743 -229.7734375 565.14624023 C-231.7039745 566.22149105 -233.62529906 567.31338398 -235.5390625 568.41821289 C-236.50457031 568.96727295 -237.47007812 569.51633301 -238.46484375 570.08203125 C-239.32601807 570.57920654 -240.18719238 571.07638184 -241.07446289 571.58862305 C-244.42376694 573.08310038 -247.04599173 573.15558407 -250.609375 572.453125 C-254.42569113 570.96644763 -256.75711343 568.29046064 -258.5546875 564.6953125 C-258.65241436 563.33990577 -258.68968893 561.97987082 -258.69512939 560.62095642 C-258.70083954 559.76770279 -258.70654968 558.91444916 -258.71243286 558.03533936 C-258.71355072 557.09676086 -258.71466858 556.15818237 -258.71582031 555.19116211 C-258.72078522 554.20380569 -258.72575012 553.21644928 -258.73086548 552.19917297 C-258.74552792 548.91532704 -258.75230059 545.63152962 -258.7578125 542.34765625 C-258.76356647 540.0595347 -258.76932417 537.77141316 -258.77508545 535.48329163 C-258.78561101 530.67041804 -258.79144156 525.85756121 -258.79492188 521.04467773 C-258.80036942 514.9189096 -258.82430995 508.79336794 -258.85289383 502.66767025 C-258.871664 497.93086642 -258.87673369 493.19411516 -258.87825775 488.4572773 C-258.88125925 486.20216209 -258.88920163 483.94704725 -258.90244293 481.69196892 C-259.07844813 449.37438302 -251.91539036 422.12053321 -228.6171875 398.3828125 C-220.41098636 390.10736071 -210.56640215 384.3624742 -200.4921875 378.6328125 C-198.79860107 377.66226929 -198.79860107 377.66226929 -197.07080078 376.67211914 C-188.35245085 371.68202297 -179.58378925 366.78198843 -170.80786133 361.89404297 C-163.71393695 357.93337517 -156.6841001 353.8744207 -149.6796875 349.7578125 C-140.07756327 344.11559608 -130.37248108 338.68128607 -120.62158203 333.30102539 C-113.20552898 329.19804228 -105.85953575 324.99285271 -98.5546875 320.6953125 C-90.12246144 315.73452081 -81.62048415 310.92166837 -73.0546875 306.1953125 C-64.44865764 301.4462496 -55.90444541 296.61246528 -47.4296875 291.6328125 C-38.41026419 286.33312172 -29.32209601 281.17388427 -20.18432617 276.08129883 C-12.34341606 271.70758569 -4.53437035 267.28009231 3.2578125 262.8203125 C3.83927032 262.48761353 4.42072815 262.15491455 5.01980591 261.81213379 C9.1625367 259.44142199 13.30407289 257.06862794 17.4453125 254.6953125 C22.17365268 251.98553383 26.90261178 249.2768423 31.6328125 246.5703125 C32.21354523 246.23793579 32.79427795 245.90555908 33.39260864 245.56311035 C41.63260868 240.84896847 49.90296077 236.19173659 58.1953125 231.5703125 C66.29252575 227.05756079 74.32810444 222.45392553 82.3203125 217.7578125 C90.79508633 212.77815037 99.33956976 207.94491666 107.9453125 203.1953125 C116.95395209 198.21794816 125.91911334 193.17519572 134.8203125 188.0078125 C135.81869141 187.43160156 136.81707031 186.85539063 137.84570312 186.26171875 C145.7517677 182.1452168 145.7517677 182.1452168 151.4453125 175.6953125 C151.79884911 171.94782447 151.99258433 169.56591917 149.95727539 166.328125 C146.64653729 162.85810851 142.96460753 160.46304763 138.94140625 157.8828125 C137.66131432 157.04683533 137.66131432 157.04683533 136.35536194 156.19396973 C134.50629261 154.98736141 132.65483295 153.78440995 130.80126953 152.5847168 C125.78454125 149.33689513 120.78591687 146.0613944 115.78515625 142.7890625 C114.23911209 141.77882019 114.23911209 141.77882019 112.66183472 140.74816895 C102.35178743 134.00182836 92.14360031 127.10892601 81.9453125 120.1953125 C67.5142528 110.42188941 53.01414063 100.76210426 38.4453125 91.1953125 C21.77952408 80.25066814 5.20918744 69.17289915 -11.30224609 57.99682617 C-13.04779538 56.81550943 -14.79340008 55.63427456 -16.5390625 54.453125 C-17.38493927 53.88078629 -18.23081604 53.30844757 -19.10232544 52.71876526 C-24.67749054 48.95123087 -30.272132 45.21441234 -35.8828125 41.5 C-36.60010529 41.0246431 -37.31739807 40.54928619 -38.056427 40.05952454 C-41.36354343 37.86874859 -44.67381207 35.68302114 -47.98974609 33.50561523 C-49.12868777 32.75260328 -50.26752925 31.99943975 -51.40625 31.24609375 C-52.38416504 30.60325439 -53.36208008 29.96041504 -54.36962891 29.2980957 C-56.5546875 27.6953125 -56.5546875 27.6953125 -57.5546875 25.6953125 C-57.8671875 22.3203125 -57.8671875 22.3203125 -57.5546875 18.6953125 C-54.94399259 15.57569637 -52.09200352 13.66354338 -48.5546875 11.70703125 C-47.59030762 11.16852539 -46.62592773 10.63001953 -45.63232422 10.07519531 C-44.10889404 9.23746582 -44.10889404 9.23746582 -42.5546875 8.3828125 C-40.47351167 7.22606367 -38.39277803 6.06851889 -36.3125 4.91015625 C-35.31637695 4.3569873 -34.32025391 3.80381836 -33.29394531 3.23388672 C-29.09088801 0.87313207 -24.96747536 -1.6105138 -20.859375 -4.1328125 C-13.03367765 -8.11198064 -6.53813274 -5.00069721 0 0 Z " fill="#4390F4" transform="translate(738.5546875,458.3046875)"/>
<path d="M0 0 C3.72054236 1.69115562 5.81819851 3.57471686 8 7 C8.38031673 9.14699841 8.38031673 9.14699841 8.38768005 11.50468445 C8.402537 12.85179504 8.402537 12.85179504 8.41769409 14.22612 C8.41319244 15.20426163 8.4086908 16.18240326 8.40405273 17.19018555 C8.41434761 18.74481003 8.41434761 18.74481003 8.42485046 20.33084106 C8.44318537 23.76627225 8.43926695 27.20124897 8.43359375 30.63671875 C8.43815653 33.03408455 8.44346239 35.43144905 8.44947815 37.82881165 C8.45842552 42.86517631 8.45597246 47.90138261 8.44604492 52.93774414 C8.43462886 59.35054252 8.45464511 65.76278421 8.48396206 72.17550945 C8.50244533 77.13537506 8.50200629 82.09511075 8.49632454 87.05500221 C8.4961724 89.41617417 8.50212702 91.77735556 8.51461601 94.13849449 C8.59050503 110.85788913 7.48674008 126.28660798 0.75 141.8125 C0.30285645 142.8629248 0.30285645 142.8629248 -0.15332031 143.93457031 C-3.04349488 150.48623291 -6.65120521 156.30661318 -11 162 C-11.39670898 162.5254541 -11.79341797 163.0509082 -12.20214844 163.59228516 C-25.11151747 180.47261215 -42.2497877 189.93007346 -60.51123047 200.06152344 C-65.52335554 202.84642708 -70.51101234 205.67393717 -75.5 208.5 C-77.37106518 209.55604021 -79.24215934 210.61202906 -81.11328125 211.66796875 C-87.64957183 215.36258676 -94.16954077 219.08567678 -100.6875 222.8125 C-101.2728653 223.14715271 -101.85823059 223.48180542 -102.46133423 223.82659912 C-108.42563159 227.23667004 -114.38845512 230.64930669 -120.34959412 234.06489563 C-123.29510888 235.75239031 -126.24117253 237.43892475 -129.1875 239.125 C-129.76805145 239.45728607 -130.34860291 239.78957214 -130.94674683 240.13192749 C-139.18693278 244.84615506 -147.45747023 249.50347668 -155.75 254.125 C-163.84721325 258.63775171 -171.88279194 263.24138697 -179.875 267.9375 C-189.47718607 273.57961427 -199.18220327 279.01402469 -208.93310547 284.39428711 C-216.34915852 288.49727022 -223.69515175 292.70245979 -231 297 C-239.43222606 301.96079169 -247.93420335 306.77364413 -256.5 311.5 C-266.10816063 316.80206842 -275.62179088 322.23960957 -285.08203125 327.80078125 C-293.20811234 332.56693713 -301.41759789 337.17197811 -309.64941406 341.75244141 C-316.77658706 345.72836202 -323.8394864 349.80183349 -330.875 353.9375 C-339.41440365 358.9538799 -348.02086989 363.83181295 -356.6875 368.625 C-365.02083 373.23464853 -373.34619998 377.85543004 -381.625 382.5625 C-382.85802856 383.25883545 -382.85802856 383.25883545 -384.1159668 383.96923828 C-388.12000705 386.25430334 -392.07119788 388.61476631 -395.9609375 391.08984375 C-396.68845215 391.55124756 -397.4159668 392.01265137 -398.16552734 392.48803711 C-400.24063137 394.19832714 -401.08009125 395.48520022 -402 398 C-401.92629533 402.05375704 -401.64418749 404.24795508 -398.97900391 407.359375 C-395.33835036 410.58649422 -391.47949138 413.17827602 -387.3984375 415.8125 C-386.54645782 416.36981812 -385.69447815 416.92713623 -384.81668091 417.50134277 C-382.97291882 418.70691701 -381.12746731 419.90991066 -379.28051758 421.1105957 C-374.27982573 424.36245304 -369.29254227 427.63474961 -364.3046875 430.90625 C-362.76328094 431.91649231 -362.76328094 431.91649231 -361.19073486 432.94714355 C-350.89656126 439.7040525 -340.69336625 446.59235999 -330.5 453.5 C-316.06846775 463.27273651 -301.56885949 472.93323124 -287 482.5 C-270.26183658 493.49199048 -253.6182333 504.6160582 -237.03710938 515.84350586 C-235.29433096 517.02336356 -233.55149349 518.20313403 -231.80859375 519.3828125 C-230.96904144 519.95107254 -230.12948914 520.51933258 -229.26449585 521.10481262 C-224.0008692 524.66233719 -218.71621175 528.18579932 -213.41015625 531.6796875 C-212.76332382 532.10649307 -212.11649139 532.53329865 -211.45005798 532.97303772 C-208.53007198 534.89922704 -205.60628217 536.81849605 -202.67358398 538.7253418 C-201.68817627 539.37414307 -200.70276855 540.02294434 -199.6875 540.69140625 C-198.84574219 541.23998291 -198.00398438 541.78855957 -197.13671875 542.35375977 C-194.90780882 544.07102892 -193.46359891 545.60090187 -192 548 C-191.75 551.375 -191.75 551.375 -193 555 C-199.32850887 560.44714549 -207.47777899 564.17450172 -214.75 568.1875 C-216.95347723 569.40952134 -219.15661502 570.63215499 -221.359375 571.85546875 C-222.32327148 572.38809326 -223.28716797 572.92071777 -224.28027344 573.46948242 C-226.99601599 574.92332951 -226.99601599 574.92332951 -229.29003906 576.6965332 C-233.24225064 578.59751136 -236.69252401 578.67885683 -241 578 C-243.70649422 576.95612226 -245.95388281 575.48462682 -248.328125 573.83203125 C-249.00498352 573.38527542 -249.68184204 572.93851959 -250.37921143 572.47822571 C-252.59993654 571.00504697 -254.79958814 569.50331349 -257 568 C-258.53469317 566.97278013 -260.07052147 565.94725436 -261.60742188 564.92333984 C-265.77329609 562.1391298 -269.92122105 559.32925414 -274.06494141 556.51220703 C-289.95856698 545.71124708 -305.93555718 535.04495981 -322 524.5 C-337.47049552 514.34236313 -352.85194634 504.06275309 -368.17724609 493.6875 C-381.71892021 484.52310723 -395.33219629 475.47508262 -409 466.5 C-425.74585095 455.5029611 -442.39343267 444.36860529 -458.98706055 433.14331055 C-460.73614914 431.96009971 -462.48525365 430.77691241 -464.234375 429.59375 C-465.07619827 429.02425125 -465.91802155 428.4547525 -466.78535461 427.86799622 C-473.70785292 423.18874239 -480.65902878 418.55376307 -487.62167358 413.93453979 C-496.8737547 407.79481835 -506.11115769 401.65995843 -515 395 C-515.69351562 394.49082031 -516.38703125 393.98164063 -517.1015625 393.45703125 C-529.02018518 384.08489844 -537.02205337 367.8591197 -539 353 C-540.60013165 332.30236216 -536.66283302 315.01130394 -523.8125 298.25 C-513.35601826 286.19816781 -499.23995061 279.4821493 -485.46337891 271.91650391 C-479.67127143 268.71136901 -473.93002317 265.41785859 -468.1875 262.125 C-467.01267642 261.45244617 -465.83779009 260.78000194 -464.6628418 260.10766602 C-461.10784278 258.07303045 -457.55383063 256.03667547 -454 254 C-449.27165982 251.29022133 -444.54270072 248.5815298 -439.8125 245.875 C-439.23176727 245.54262329 -438.65103455 245.21024658 -438.05270386 244.86779785 C-429.81270382 240.15365597 -421.54235173 235.49642409 -413.25 230.875 C-405.15278675 226.36224829 -397.11720806 221.75861303 -389.125 217.0625 C-379.52422129 211.42121268 -369.82048376 205.98787732 -360.07128906 200.60791016 C-352.61351244 196.48144476 -345.22347369 192.25536345 -337.875 187.9375 C-328.85557669 182.63780922 -319.76740851 177.47857177 -310.62963867 172.38598633 C-302.78872856 168.01227319 -294.97968285 163.58477981 -287.1875 159.125 C-286.31531326 158.62595154 -286.31531326 158.62595154 -285.42550659 158.11682129 C-281.2827758 155.74610949 -277.14123961 153.37331544 -273 151 C-268.27165982 148.29022133 -263.54270072 145.5815298 -258.8125 142.875 C-258.23176727 142.54262329 -257.65103455 142.21024658 -257.05270386 141.86779785 C-248.81270382 137.15365597 -240.54235173 132.49642409 -232.25 127.875 C-224.15278675 123.36224829 -216.11720806 118.75861303 -208.125 114.0625 C-198.52422129 108.42121268 -188.82048376 102.98787732 -179.07128906 97.60791016 C-171.61351244 93.48144476 -164.22347369 89.25536345 -156.875 84.9375 C-147.85557669 79.63780922 -138.76740851 74.47857177 -129.62963867 69.38598633 C-121.78872856 65.01227319 -113.97968285 60.58477981 -106.1875 56.125 C-105.60604218 55.79230103 -105.02458435 55.45960205 -104.42550659 55.11682129 C-100.2827758 52.74610949 -96.14123961 50.37331544 -92 48 C-87.27165982 45.29022133 -82.54270072 42.5815298 -77.8125 39.875 C-77.23176727 39.54262329 -76.65103455 39.21024658 -76.05270386 38.86779785 C-66.79882475 33.57361109 -57.50272373 28.35793369 -48.18896484 23.16992188 C-39.71282989 18.43361808 -31.32165706 13.55863704 -22.96386719 8.61669922 C-6.80611435 -0.89892076 -6.80611435 -0.89892076 0 0 Z " fill="#4390F4" transform="translate(1019,78)"/>
<path d="M0 0 C16.83 0 33.66 0 51 0 C51.33 30.36 51.66 60.72 52 92 C61.82077691 82.24566439 61.82077691 82.24566439 71 72 C72.05208954 70.76770285 73.1047522 69.53589479 74.15797424 68.30456543 C74.94653683 67.37930683 74.94653683 67.37930683 75.75102997 66.43535614 C84.76577939 55.88785579 94.06196445 45.61150557 103.5625 35.5 C104.35486053 34.65595612 105.14722107 33.81191223 105.96359253 32.94229126 C140.71417541 -3.8069443 140.71417541 -3.8069443 165.94154358 -5.01745605 C179.0543268 -5.27951254 192.34230077 -3.28076851 205 0 C203.43062477 4.04452694 200.55386312 6.45084995 197.38012695 9.2487793 C190.04139553 15.87389619 183.06065482 22.82316231 176.09151268 29.83332253 C173.86022113 32.07761536 171.62561227 34.31856056 169.39021301 36.5587616 C164.6531157 41.30716194 159.92001245 46.0595307 155.1875 50.8125 C149.67866104 56.34505509 144.16813477 61.87590861 138.65337563 67.4025631 C136.46452257 69.59784079 134.27872931 71.79613297 132.09306335 73.99458313 C130.74082121 75.35046031 129.38843705 76.70619588 128.03588867 78.06176758 C127.4398735 78.66294907 126.84385834 79.26413055 126.2297821 79.88352966 C122.54256897 83.5711966 118.72576465 87.0539701 114.77119923 90.45365429 C112.40988429 92.51520059 110.19867693 94.70446874 108 96.9375 C107.236875 97.70964844 106.47375 98.48179688 105.6875 99.27734375 C105.130625 99.84582031 104.57375 100.41429687 104 101 C107.97602709 106.53028396 112.23309748 111.57974616 116.9375 116.5 C118.18057941 117.81556406 119.42277818 119.13196082 120.6640625 120.44921875 C121.24704102 121.06716309 121.83001953 121.68510742 122.43066406 122.32177734 C124.80732799 124.86334359 127.09298417 127.4769917 129.36328125 130.11328125 C131.37873772 132.43658787 133.43848462 134.71748465 135.5 137 C138.76390848 140.61676345 141.98790949 144.26389608 145.1875 147.9375 C147.27211164 150.30964429 149.38428644 152.65556065 151.5 155 C154.18983431 157.98062721 156.86310364 160.97245233 159.5 164 C163.61081039 168.71701284 167.80667845 173.35638889 172 178 C176.76786975 183.27985576 181.51512218 188.57291806 186.1875 193.9375 C188.27211164 196.30964429 190.38428644 198.65556065 192.5 201 C195.75844063 204.61070448 198.98014904 208.24878999 202.16796875 211.921875 C203.54952018 213.48900797 204.95158429 215.03809195 206.36328125 216.578125 C207.17152344 217.45984375 207.97976563 218.3415625 208.8125 219.25 C209.56144531 220.05953125 210.31039063 220.8690625 211.08203125 221.703125 C212.81095985 223.77361383 213.85577953 225.58650417 215 228 C206.4547673 228.27941161 197.91147511 228.49192111 189.3627882 228.62174606 C185.39197952 228.68409505 181.42431876 228.76846816 177.45532227 228.90527344 C173.6165215 229.03674605 169.78072399 229.10762043 165.93984413 229.13852692 C164.48313425 229.16051434 163.02656898 229.20345813 161.57115746 229.26876068 C155.41547232 229.53369128 149.58963165 229.74344312 144.73867798 225.44421387 C141.85937651 222.50373562 139.43573199 219.31330559 137 216 C135.48618038 214.14010264 133.9664813 212.28495344 132.4375 210.4375 C131.71433594 209.53902344 130.99117187 208.64054687 130.24609375 207.71484375 C127.9116941 204.89326505 125.48009402 202.19409288 123 199.5 C118.88621091 195.0301488 115.02912703 190.40955107 111.21484375 185.68359375 C109.04367173 183.05291443 106.79758643 180.52057576 104.5 178 C100.58108748 173.70008209 96.90829131 169.24080453 93.25 164.71875 C90.35524289 161.22091849 87.30410461 157.88214596 84.24609375 154.52734375 C81.93812402 151.93037607 79.74444137 149.26595987 77.5625 146.5625 C73.71161907 141.80080201 69.64726023 137.28882166 65.5 132.78515625 C62.13457329 129.03586056 58.96746912 125.14165354 55.8125 121.21484375 C54.03873643 118.97246433 54.03873643 118.97246433 52 117 C51.67 153.63 51.34 190.26 51 228 C34.17 228 17.34 228 0 228 C0 152.76 0 77.52 0 0 Z " fill="#2D225E" transform="translate(977,1221)"/>
<path d="M0 0 C1.09344727 0.00491455 2.18689453 0.0098291 3.31347656 0.01489258 C27.16987111 0.3603037 49.83632789 10.33728708 66.625 27.3125 C77.7139177 39.88327007 85.625 55.33472972 85.625 72.3125 C71.105 72.3125 56.585 72.3125 41.625 72.3125 C39.645 68.3525 37.665 64.3925 35.625 60.3125 C28.58118731 51.33731931 21.11087576 45.19780789 9.625 43.3125 C-2.44260374 42.20532665 -13.93901983 42.89862027 -24.375 49.6875 C-29.4773615 54.15206631 -32.14999023 58.63062852 -33.375 65.3125 C-33.54480602 71.16137386 -32.87018871 76.14327355 -29.05078125 80.7265625 C-17.95150037 91.23077704 -1.39498231 93.1963521 13.01235962 95.86956787 C38.23861924 100.55065203 64.57403387 107.51916237 80.625 129.3125 C91.523346 146.46930212 93.99613842 164.96500664 89.59765625 184.70703125 C86.97777795 194.41846767 82.83227659 202.42652597 76.625 210.3125 C75.74908203 211.45332031 75.74908203 211.45332031 74.85546875 212.6171875 C60.82678664 229.68787857 37.23306903 238.78349904 15.72241211 241.14257812 C-5.59366553 242.86950049 -25.29760551 240.10999911 -44.375 230.3125 C-45.44234375 229.77753906 -46.5096875 229.24257812 -47.609375 228.69140625 C-55.65442081 224.34583099 -61.95012867 218.71911885 -68.375 212.3125 C-69.1175 211.59320312 -69.86 210.87390625 -70.625 210.1328125 C-81.48350558 198.89256258 -88.375 182.9363584 -88.375 167.3125 C-73.855 167.3125 -59.335 167.3125 -44.375 167.3125 C-42.725 170.6125 -41.075 173.9125 -39.375 177.3125 C-30.97323484 188.90325632 -20.30216187 195.19711354 -6.328125 197.90234375 C6.97490747 199.74998715 20.63652458 197.31066899 31.625 189.3125 C37.0070759 183.99526839 39.25282737 178.40639896 39.9375 170.875 C39.30989145 163.72026255 36.75903144 158.41332409 31.625 153.3125 C20.4229978 145.81486361 7.60932424 143.63526597 -5.3828125 141.171875 C-31.57949202 136.17256996 -57.77686484 129.30982049 -74.66015625 106.90234375 C-84.50572465 92.03306846 -86.64995827 73.98224007 -83.29443359 56.72387695 C-80.32069314 43.38723853 -74.08899248 32.91084972 -64.375 23.3125 C-63.69953125 22.61511719 -63.0240625 21.91773438 -62.328125 21.19921875 C-46.0737546 5.46425492 -21.95716119 -0.11773734 0 0 Z " fill="#2D225E" transform="translate(164.375,1214.6875)"/>
<path d="M0 0 C58.74 0 117.48 0 178 0 C178 41.00221858 157.58669671 61.53772591 134.25073242 91.87402344 C133.41492624 92.96058779 132.57915165 94.04717645 131.7434082 95.13378906 C129.69816364 97.79288548 127.65230009 100.4514994 125.60546875 103.109375 C120.8924 109.23103457 116.19125402 115.36160412 111.5 121.5 C106.01437558 128.67781092 100.51203249 135.84245047 95 143 C93.33304708 145.16644651 91.66652587 147.33322497 90 149.5 C89.16667453 150.58333938 88.3333412 151.66667272 87.5 152.75 C87.0875 153.28625 86.675 153.8225 86.25 154.375 C82.5 159.25 82.5 159.25 81.24829102 160.87719727 C80.42062279 161.95318215 79.59298572 163.02919099 78.76538086 164.10522461 C76.59563519 166.92619349 74.42524097 169.74666025 72.25390625 172.56640625 C71.80337891 173.15164063 71.35285156 173.736875 70.88867188 174.33984375 C69.63557887 175.9675728 68.38224986 177.59512016 67.12890625 179.22265625 C65.40535842 181.47117461 63.69985961 183.73352052 62 186 C102.59 186.33 143.18 186.66 185 187 C185 200.86 185 214.72 185 229 C122.96 229 60.92 229 -3 229 C-3 194 -3 194 1.875 185.625 C4.92578125 182.69921875 4.92578125 182.69921875 6.49072266 181.36865234 C9.0685701 179.03099256 11.01325484 176.23460894 13.0625 173.4375 C13.88416029 172.36132305 14.70836982 171.2870875 15.53515625 170.21484375 C16.14447998 169.41989502 16.14447998 169.41989502 16.76611328 168.60888672 C18.8409259 165.90350184 20.9207484 163.20197368 23 160.5 C23.83725535 159.41147046 24.67449496 158.32292881 25.51171875 157.234375 C27.13866417 155.11928247 28.7663998 153.00480548 30.39453125 150.890625 C35.1076 144.76896543 39.80874598 138.63839588 44.5 132.5 C49.98562442 125.32218908 55.48796751 118.15754953 61 111 C62.66695292 108.83355349 64.33347413 106.66677503 66 104.5 C66.83332547 103.41666062 67.6666588 102.33332728 68.5 101.25 C68.9125 100.71375 69.325 100.1775 69.75 99.625 C83.5 81.75 83.5 81.75 84.74951172 80.12573242 C85.58459846 79.04005444 86.41955898 77.95427935 87.25439453 76.8684082 C89.30989362 74.19513835 91.36788115 71.52388373 93.4296875 68.85546875 C100.03702919 60.29547815 106.50981032 51.65358624 113 43 C75.71 42.67 38.42 42.34 0 42 C0 28.14 0 14.28 0 0 Z " fill="#2D225E" transform="translate(514,1221)"/>
<path d="M0 0 C47.33945977 -6.69909014 47.33945977 -6.69909014 61.76507568 1.58856201 C72.7617672 10.36791116 78.72674129 24.42757946 84.78808594 36.77929688 C89.54534178 46.28191078 95.62343443 54.93269026 101.59991455 63.69689941 C104.5890316 68.1065936 107.49238769 72.57165266 110.40625 77.03125 C114.96559673 83.97227412 119.59448269 90.86312529 124.28125 97.71875 C124.84090454 98.53766724 125.40055908 99.35658447 125.97717285 100.20031738 C128.28769593 103.76175494 128.28769593 103.76175494 131 107 C133.31372128 100.93796545 135.62595463 94.87536457 137.9375 88.8125 C138.29158936 87.88395203 138.64567871 86.95540405 139.01049805 85.99871826 C143.21484651 74.97113918 147.4060982 63.9388079 151.56640625 52.89453125 C151.93910141 51.90562393 152.31179657 50.91671661 152.69578552 49.89784241 C154.48727192 45.14358359 156.27655503 40.3885149 158.06225586 35.63208008 C158.72892797 33.86146229 159.39567271 32.09087185 160.0625 30.3203125 C160.34231216 29.57243973 160.62212433 28.82456696 160.91041565 28.05403137 C164.46061911 18.64150545 168.26168298 9.34579254 172 0 C189.82 0 207.64 0 226 0 C225.12043947 4.39780263 223.87221651 8.31855651 222.2890625 12.48046875 C221.86983521 13.59621277 221.86983521 13.59621277 221.44213867 14.73449707 C220.50689732 17.22028353 219.56600026 19.70388842 218.625 22.1875 C217.95464954 23.96515043 217.28457144 25.74290359 216.61474609 27.52075195 C210.5056166 43.72009397 204.34879232 59.90152894 198.19189453 76.08276367 C192.94184561 89.88122208 187.71195739 103.68711137 182.5 117.5 C175.66552413 135.61125059 168.79861698 153.71003201 161.91455078 171.80249023 C158.16998249 181.64566857 154.43302958 191.49153068 150.72265625 201.34765625 C150.06275039 203.09896069 149.40283846 204.85026284 148.74291992 206.6015625 C147.5252441 209.8335201 146.31108033 213.06676776 145.09887695 216.30078125 C144.56343982 217.72270371 144.02788443 219.14458165 143.4921875 220.56640625 C143.03183105 221.79302979 142.57147461 223.01965332 142.09716797 224.28344727 C141 227 141 227 140 228 C138.31198015 228.09353163 136.62004793 228.11744791 134.92944336 228.11352539 C133.84839828 228.11344986 132.76735321 228.11337433 131.65354919 228.11329651 C129.889515 228.10555458 129.889515 228.10555458 128.08984375 228.09765625 C126.89267227 228.0962413 125.69550079 228.09482635 124.46205139 228.09336853 C120.62050934 228.08774979 116.77902457 228.07519411 112.9375 228.0625 C110.34049563 228.05748741 107.74349035 228.05292409 105.14648438 228.04882812 C98.76430321 228.03777427 92.3821557 228.02101792 86 228 C88.15564317 220.34919537 90.80848636 212.95200001 93.6484375 205.53125 C94.09795776 204.34836395 94.54747803 203.16547791 95.01062012 201.94674683 C96.21454198 198.78079286 97.42151739 195.61603849 98.63002777 192.45183563 C99.87709867 189.18449582 101.12019137 185.91564304 102.36376953 182.64697266 C105.23750405 175.09606739 108.1182528 167.5478506 111 160 C111.76826859 157.98666869 112.5365008 155.9733235 113.3046875 153.95996094 C116.86235682 144.63712095 120.42592836 135.316565 124 126 C122.87956299 126.20012695 121.75912598 126.40025391 120.60473633 126.60644531 C108.16882667 128.60074946 93.815323 130.30319409 82 125 C70.87706804 116.85430715 64.48204209 102.18829583 58.13059998 90.3341217 C52.73949206 80.28089477 46.47859632 70.96863043 39.97512817 61.60980225 C36.93108748 57.21302753 33.94746083 52.77579761 30.9609375 48.33984375 C30.38213333 47.48211365 29.80332916 46.62438354 29.20698547 45.74066162 C23.51547204 37.30061907 17.8803187 28.82372092 12.2802124 20.32278442 C11.26917639 18.78808329 10.25703003 17.254113 9.24371338 15.72091675 C7.86191165 13.62884283 6.48480618 11.53376599 5.109375 9.4375 C4.70361237 8.82407242 4.29784973 8.21064484 3.87979126 7.57862854 C2.23371538 5.05811567 0.95739892 2.87219676 0 0 Z " fill="#2D225E" transform="translate(261,1221)"/>
<path d="M0 0 C47.33945977 -6.69909014 47.33945977 -6.69909014 61.76507568 1.58856201 C72.7617672 10.36791116 78.72674129 24.42757946 84.78808594 36.77929688 C89.54534178 46.28191078 95.62343443 54.93269026 101.59991455 63.69689941 C104.5890316 68.1065936 107.49238769 72.57165266 110.40625 77.03125 C114.96559673 83.97227412 119.59448269 90.86312529 124.28125 97.71875 C124.84090454 98.53766724 125.40055908 99.35658447 125.97717285 100.20031738 C128.28769593 103.76175494 128.28769593 103.76175494 131 107 C133.20920482 101.20866543 135.41728371 95.41690217 137.625 89.625 C137.96937103 88.72171967 138.31374207 87.81843933 138.66854858 86.88778687 C143.15979572 75.10571904 147.63962084 63.31937278 152.10420227 51.5271759 C152.8535444 49.54805125 153.60307354 47.56899752 154.35266113 45.58996582 C154.85083365 44.27465956 155.3490026 42.95935194 155.84716797 41.64404297 C156.09299244 40.99499622 156.33881691 40.34594948 156.59209061 39.67723465 C158.06509738 35.78758688 159.53667393 31.89740144 161.00729275 28.00685024 C162.15604057 24.96896949 163.30671945 21.93182007 164.45703125 18.89453125 C165.07955025 17.24544014 165.07955025 17.24544014 165.71464539 15.56303406 C166.29832634 14.02326653 166.29832634 14.02326653 166.89379883 12.45239258 C167.22970535 11.56425369 167.56561188 10.67611481 167.91169739 9.76106262 C169.20526035 6.47924715 170.61042948 3.24233122 172 0 C189.82 0 207.64 0 226 0 C225.12043947 4.39780263 223.87221651 8.31855651 222.2890625 12.48046875 C221.86983521 13.59621277 221.86983521 13.59621277 221.44213867 14.73449707 C220.50689732 17.22028353 219.56600026 19.70388842 218.625 22.1875 C217.95464954 23.96515043 217.28457144 25.74290359 216.61474609 27.52075195 C210.5056166 43.72009397 204.34879232 59.90152894 198.19189453 76.08276367 C192.94184561 89.88122208 187.71195739 103.68711137 182.5 117.5 C175.66552413 135.61125059 168.79861698 153.71003201 161.91455078 171.80249023 C158.16998249 181.64566857 154.43302958 191.49153068 150.72265625 201.34765625 C150.06275039 203.09896069 149.40283846 204.85026284 148.74291992 206.6015625 C147.5252441 209.8335201 146.31108033 213.06676776 145.09887695 216.30078125 C144.56343982 217.72270371 144.02788443 219.14458165 143.4921875 220.56640625 C143.03183105 221.79302979 142.57147461 223.01965332 142.09716797 224.28344727 C141 227 141 227 140 228 C138.31198015 228.09353163 136.62004793 228.11744791 134.92944336 228.11352539 C133.84839828 228.11344986 132.76735321 228.11337433 131.65354919 228.11329651 C129.889515 228.10555458 129.889515 228.10555458 128.08984375 228.09765625 C126.89267227 228.0962413 125.69550079 228.09482635 124.46205139 228.09336853 C120.62050934 228.08774979 116.77902457 228.07519411 112.9375 228.0625 C110.34049563 228.05748741 107.74349035 228.05292409 105.14648438 228.04882812 C98.76430321 228.03777427 92.3821557 228.02101792 86 228 C88.15564317 220.34919537 90.80848636 212.95200001 93.6484375 205.53125 C94.09795776 204.34836395 94.54747803 203.16547791 95.01062012 201.94674683 C96.21454198 198.78079286 97.42151739 195.61603849 98.63002777 192.45183563 C99.87709867 189.18449582 101.12019137 185.91564304 102.36376953 182.64697266 C105.23750405 175.09606739 108.1182528 167.5478506 111 160 C111.76826859 157.98666869 112.5365008 155.9733235 113.3046875 153.95996094 C116.86235682 144.63712095 120.42592836 135.316565 124 126 C122.87956299 126.20012695 121.75912598 126.40025391 120.60473633 126.60644531 C108.16882667 128.60074946 93.815323 130.30319409 82 125 C70.88418865 116.85952181 64.49477053 102.20886688 58.14872742 90.36131287 C52.68843999 80.17972911 46.33177807 70.74884958 39.74771118 61.26867676 C36.68622228 56.84464694 33.68440748 52.38066091 30.6796875 47.91796875 C30.10904068 47.07247467 29.53839386 46.22698059 28.95045471 45.35586548 C23.58132014 37.39656477 18.2704081 29.39995416 13 21.375 C12.6156781 20.79203156 12.2313562 20.20906311 11.83538818 19.60842896 C10.76168465 17.97828031 9.69322959 16.34467842 8.625 14.7109375 C8.03976562 13.81681152 7.45453125 12.92268555 6.8515625 12.00146484 C4.42965612 8.0754473 2.21198136 4.04707922 0 0 Z " fill="#2D225E" transform="translate(721,1221)"/>
<path d="M0 0 C46.46024418 -6.69905038 46.46024418 -6.69905038 60.7364502 1.58856201 C71.69198414 10.40363927 77.68088022 24.44408649 83.77197266 36.77929688 C88.55168057 46.27222727 94.62572252 54.9292255 100.60092163 63.69689941 C103.58882901 68.10714655 106.49282861 72.5716175 109.40625 77.03125 C114.50441385 84.80973117 119.72745574 92.49608712 125.06506348 100.11242676 C125.58177612 100.85714233 126.09848877 101.60185791 126.63085938 102.36914062 C127.08956421 103.02418579 127.54826904 103.67923096 128.02087402 104.35412598 C129 106 129 106 129 108 C129.66 108 130.32 108 131 108 C131.10675049 107.16952148 131.21350098 106.33904297 131.32348633 105.48339844 C132.08644647 101.55488334 133.37360491 97.9774242 134.82421875 94.265625 C135.11846741 93.49865295 135.41271606 92.73168091 135.71588135 91.94146729 C136.70136712 89.37566901 137.69453888 86.81291356 138.6875 84.25 C139.75304567 81.48117262 140.81650427 78.71154899 141.87989807 75.94189453 C142.64914435 73.93871857 143.41905156 71.93579631 144.18955994 69.93310547 C147.45949493 61.42869507 150.69555358 52.91164516 153.921875 44.390625 C154.17164911 43.7310807 154.42142323 43.07153641 154.67876625 42.39200592 C156.93134421 36.44372995 159.18272083 30.49499959 161.43344116 24.54602051 C162.83858864 20.83232649 164.2454484 17.11928222 165.65234375 13.40625 C166.07767395 12.28107971 166.50300415 11.15590942 166.94122314 9.99664307 C167.33049988 8.96972351 167.71977661 7.94280396 168.12084961 6.88476562 C168.46119736 5.98552368 168.8015451 5.08628174 169.15220642 4.15979004 C170 2 170 2 171 0 C188.82 0 206.64 0 225 0 C224.18574905 4.88550568 223.20926638 8.44071415 221.4296875 12.97265625 C221.16123016 13.66252625 220.89277283 14.35239624 220.61618042 15.06317139 C220.02344786 16.58548132 219.42825074 18.10683333 218.83093262 19.62734985 C217.12612996 23.97017733 215.44278015 28.32132165 213.7578125 32.671875 C213.38575684 33.63152664 213.01370117 34.59117828 212.63037109 35.57991028 C207.83534368 47.97192776 203.16666374 60.4118361 198.48884583 72.84843063 C196.25711073 78.78103848 194.02309518 84.71278831 191.7890625 90.64453125 C191.42138512 91.62088374 191.42138512 91.62088374 191.04627991 92.61696053 C185.71333157 106.77685546 180.34068499 120.92156173 174.9593811 135.06314087 C169.62955922 149.06992682 164.31936836 163.08391777 159.02947998 177.10583496 C154.04052407 190.32847825 149.05153116 203.55110946 144 216.75 C143.59644287 217.80960938 143.19288574 218.86921875 142.77709961 219.9609375 C142.41753174 220.89679688 142.05796387 221.83265625 141.6875 222.796875 C141.38199219 223.59448242 141.07648438 224.39208984 140.76171875 225.21386719 C140 227 140 227 139 228 C137.31198015 228.09353163 135.62004793 228.11744791 133.92944336 228.11352539 C132.84839828 228.11344986 131.76735321 228.11337433 130.65354919 228.11329651 C128.889515 228.10555458 128.889515 228.10555458 127.08984375 228.09765625 C125.89267227 228.0962413 124.69550079 228.09482635 123.46205139 228.09336853 C119.62050934 228.08774979 115.77902457 228.07519411 111.9375 228.0625 C109.34049563 228.05748741 106.74349035 228.05292409 104.14648438 228.04882812 C97.76430321 228.03777427 91.3821557 228.02101792 85 228 C86.91400294 221.31016241 89.11072433 214.80760807 91.6328125 208.32421875 C91.98243042 207.41606415 92.33204834 206.50790955 92.69226074 205.57223511 C93.44344595 203.62186496 94.19623622 201.67211236 94.95050049 199.72293091 C96.96416356 194.51872685 98.96579788 189.30989614 100.96875 184.1015625 C101.38113922 183.03009476 101.79352844 181.95862701 102.21841431 180.85469055 C106.73537712 169.10880135 111.18442558 157.33743789 115.625 145.5625 C115.9999762 144.56858246 116.37495239 143.57466492 116.7612915 142.55062866 C118.84235797 137.03431579 120.92195252 131.51745083 123 126 C121.78530029 126.05873291 120.57060059 126.11746582 119.3190918 126.17797852 C114.76609378 126.37499679 110.2167035 126.45714761 105.65991211 126.5065918 C103.6971772 126.54350895 101.73475042 126.61064447 99.77416992 126.7097168 C84.14150814 127.46966549 84.14150814 127.46966549 79.19799805 123.58337402 C75.78312833 119.679233 73.56514385 115.13529472 71.29495239 110.50448608 C69.06668949 106.19494276 66.31160925 102.24364263 63.6015625 98.2265625 C62.4634504 96.4998274 61.32734132 94.77177062 60.19311523 93.04248047 C59.00393584 91.23652697 57.81455924 89.43070332 56.625 87.625 C56.0085965 86.68899963 55.39219299 85.75299927 54.7571106 84.78863525 C43.35104409 67.47816402 31.79911403 50.26863298 20.17755127 33.1022644 C18.53048152 30.66801022 16.88586408 28.23211532 15.24169922 25.79589844 C13.00352171 22.47960714 10.75282764 19.17218452 8.49658203 15.86816406 C7.38418629 14.22738559 6.27203485 12.58644146 5.16015625 10.9453125 C4.63949081 10.18838104 4.11882538 9.43144958 3.5823822 8.65158081 C3.11055008 7.95203278 2.63871796 7.25248474 2.15258789 6.53173828 C1.73537979 5.9198465 1.31817169 5.30795471 0.88832092 4.67752075 C0 3 0 3 0 0 Z " fill="#2D225E" transform="translate(1206,1221)"/>
<path d="M0 0 C2.69765928 1.22781866 4.73562483 2.3431434 7.125 4 C7.78242187 4.43280273 8.43984375 4.86560547 9.1171875 5.31152344 C11.42984154 6.84872094 13.71524672 8.42163952 16 10 C16.9394043 10.64259766 17.87880859 11.28519531 18.84667969 11.94726562 C25.6048461 16.5750692 32.32573035 21.25206727 39 26 C39.80397217 26.55220215 40.60794434 27.1044043 41.4362793 27.67333984 C42.16242432 28.18590332 42.88856934 28.6984668 43.63671875 29.2265625 C44.58744263 29.88519287 44.58744263 29.88519287 45.55737305 30.55712891 C47.40205414 32.40212218 47.63652489 33.54304592 47.8125 36.125 C46.82991565 40.81117149 45.81543488 41.32376294 42 44 C40.08854219 45.18325936 38.15143576 46.32573299 36.1953125 47.43359375 C34.50245117 48.39652344 34.50245117 48.39652344 32.77539062 49.37890625 C31.55864328 50.06519199 30.34184513 50.75138766 29.125 51.4375 C27.85850932 52.15587173 26.59223604 52.87462685 25.32617188 53.59375 C22.14349602 55.40005574 18.95796625 57.20125028 15.77111816 59.00018311 C13.18783407 60.45847716 10.6057197 61.91883902 8.0234375 63.37890625 C5.25479052 64.94371979 2.48584171 66.50798864 -0.28393555 68.07080078 C-7.76547176 72.29413411 -15.22932971 76.54808513 -22.6875 80.8125 C-23.56554794 81.31447906 -23.56554794 81.31447906 -24.46133423 81.82659912 C-30.42563159 85.23667004 -36.38845512 88.64930669 -42.34959412 92.06489563 C-45.29510888 93.75239031 -48.24117253 95.43892475 -51.1875 97.125 C-51.76805145 97.45728607 -52.34860291 97.78957214 -52.94674683 98.13192749 C-61.18693278 102.84615506 -69.45747023 107.50347668 -77.75 112.125 C-85.84721325 116.63775171 -93.88279194 121.24138697 -101.875 125.9375 C-111.47577871 131.57878732 -121.17951624 137.01212268 -130.92871094 142.39208984 C-139.3763079 147.06623313 -147.72596033 151.8894316 -156.04907227 156.78100586 C-166.38433817 162.84168773 -176.83117105 168.70206946 -187.31542969 174.50073242 C-189.08080426 175.48665142 -190.83709631 176.48904464 -192.58300781 177.5090332 C-193.37416992 177.96753662 -194.16533203 178.42604004 -194.98046875 178.8984375 C-195.6664917 179.30368652 -196.35251465 179.70893555 -197.05932617 180.12646484 C-200.33804655 181.60228086 -202.68625405 181.12667362 -206 180 C-209.04215563 176.88653646 -209.37804246 174.57709715 -209.38818359 170.30102539 C-209.39764008 169.15626236 -209.40709656 168.01149933 -209.4168396 166.83204651 C-209.41076691 165.59969772 -209.40469421 164.36734894 -209.3984375 163.09765625 C-209.40130768 161.8278038 -209.40417786 160.55795135 -209.40713501 159.24961853 C-209.40917691 156.56364283 -209.40514724 153.87848569 -209.39111328 151.19262695 C-209.3740384 147.75823826 -209.38385438 144.32455383 -209.40183067 140.89019108 C-209.41531104 137.60515463 -209.40585692 134.32020191 -209.3984375 131.03515625 C-209.40451019 129.8048317 -209.41058289 128.57450714 -209.4168396 127.30690002 C-209.40738312 126.15898483 -209.39792664 125.01106964 -209.38818359 123.82836914 C-209.38579681 122.82117325 -209.38341003 121.81397736 -209.38095093 120.77626038 C-208.78000594 116.39674682 -206.89413817 113.80749434 -203.65942383 110.88623047 C-200.99402808 108.99576434 -198.31872616 107.38240833 -195.44921875 105.8203125 C-194.37091797 105.22863281 -193.29261719 104.63695312 -192.18164062 104.02734375 C-191.02857422 103.39957031 -189.87550781 102.77179688 -188.6875 102.125 C-186.23097006 100.77723982 -183.77711035 99.42468165 -181.32421875 98.0703125 C-180.70497528 97.72856995 -180.08573181 97.38682739 -179.44772339 97.034729 C-173.5760865 93.78427774 -167.7821401 90.4068718 -162 87 C-153.56814258 82.03859949 -145.06577775 77.22634544 -136.5 72.5 C-127.89397014 67.7509371 -119.34975791 62.91715278 -110.875 57.9375 C-101.85557669 52.63780922 -92.76740851 47.47857177 -83.62963867 42.38598633 C-75.78873038 38.0122742 -67.97959939 33.584924 -60.1875 29.125 C-59.61135956 28.79529205 -59.03521912 28.46558411 -58.44161987 28.12588501 C-55.50460659 26.44484249 -52.56807721 24.76295697 -49.63183594 23.08056641 C-43.97025727 19.83678955 -38.3063417 16.59710054 -32.64175415 13.35858154 C-30.86854131 12.34454791 -29.09574817 11.32978369 -27.32299805 10.31494141 C-25.17916929 9.08894577 -23.0321246 7.86855021 -20.88134766 6.65478516 C-19.07388685 5.61674336 -17.28351596 4.54769917 -15.52099609 3.43505859 C-10.33072235 0.23698847 -6.10713358 -1.20066751 0 0 Z " fill="#468CF2" transform="translate(625,596)"/>
<path d="M0 0 C2.74227448 2.09999455 3.86566718 3.29044839 4.5146637 6.71847534 C4.52086227 7.75738922 4.52706085 8.7963031 4.53344727 9.86669922 C4.5492836 11.04827606 4.56511993 12.22985291 4.58143616 13.44723511 C4.57399635 15.35667404 4.57399635 15.35667404 4.56640625 17.3046875 C4.57260483 18.61656036 4.57880341 19.92843323 4.58518982 21.28005981 C4.59559019 24.05586298 4.59104039 26.83115344 4.57641602 29.60693359 C4.559254 33.1536824 4.58268955 36.69880719 4.61790562 40.24537468 C4.64523352 43.64023974 4.63513901 47.03471764 4.62890625 50.4296875 C4.64216446 51.69859833 4.65542267 52.96750916 4.66908264 54.27487183 C4.56549433 64.09291322 4.56549433 64.09291322 1.78686523 67.64648438 C-0.81821325 69.84648057 -3.22192849 71.61008525 -6.21875 73.2265625 C-7.22204346 73.77683105 -8.22533691 74.32709961 -9.2590332 74.89404297 C-10.32855225 75.46525879 -11.39807129 76.03647461 -12.5 76.625 C-14.77520419 77.86894227 -17.04993723 79.11374663 -19.32421875 80.359375 C-20.45649902 80.97490234 -21.5887793 81.59042969 -22.75537109 82.22460938 C-27.30858822 84.71603111 -31.81340029 87.28749689 -36.3125 89.875 C-38.02596496 90.8569047 -39.73950871 91.83867191 -41.453125 92.8203125 C-42.33935547 93.32852539 -43.22558594 93.83673828 -44.13867188 94.36035156 C-49.61014778 97.49571267 -55.08674358 100.62212268 -60.5625 103.75 C-70.46305452 109.40538537 -70.46305452 109.40538537 -80.35865784 115.06942749 C-83.30118101 116.75535957 -86.24420472 118.44041628 -89.1875 120.125 C-89.76787018 120.45719543 -90.34824036 120.78939087 -90.94619751 121.13165283 C-99.18656938 125.8459661 -107.45729219 130.50337746 -115.75 135.125 C-124.84273334 140.19257654 -133.84723357 145.3943702 -142.82104492 150.66918945 C-151.6380283 155.83223576 -160.56652405 160.78220846 -169.51318359 165.71508789 C-176.90631701 169.80247626 -184.18928995 174.01976948 -191.375 178.4609375 C-195.72977643 181.01418439 -198.99261163 181.48458597 -204 181 C-211.33021344 178.17371152 -217.88663111 172.73405095 -224.296875 168.26171875 C-227.80708833 165.81573967 -231.3427328 163.41052695 -234.890625 161.01953125 C-236.39266479 160.00511963 -236.39266479 160.00511963 -237.92504883 158.97021484 C-239.91492363 157.62750493 -241.90691345 156.28792351 -243.90112305 154.95166016 C-244.80902588 154.33726074 -245.71692871 153.72286133 -246.65234375 153.08984375 C-247.46695068 152.54191162 -248.28155762 151.99397949 -249.12084961 151.42944336 C-251 150 -251 150 -252 148 C-252.4375 144.6875 -252.4375 144.6875 -252 141 C-246.79977909 135.70064143 -240.09770299 132.56494037 -233.625 129.0625 C-231.17997414 127.72555917 -228.73812634 126.38288107 -226.296875 125.0390625 C-225.68113617 124.70061813 -225.06539734 124.36217377 -224.43099976 124.01347351 C-218.51996057 120.75504861 -212.69127419 117.3619491 -206.875 113.9375 C-197.85609724 108.63694289 -188.76738722 103.4785599 -179.62963867 98.38598633 C-171.78872856 94.01227319 -163.97968285 89.58477981 -156.1875 85.125 C-155.31531326 84.62595154 -155.31531326 84.62595154 -154.42550659 84.11682129 C-150.2827758 81.74610949 -146.14123961 79.37331544 -142 77 C-137.27165982 74.29022133 -132.54270072 71.5815298 -127.8125 68.875 C-127.23176727 68.54262329 -126.65103455 68.21024658 -126.05270386 67.86779785 C-117.81270382 63.15365597 -109.54235173 58.49642409 -101.25 53.875 C-93.15278675 49.36224829 -85.11720806 44.75861303 -77.125 40.0625 C-67.53723347 34.42885846 -57.84700512 29.00223737 -48.11083984 23.62988281 C-38.31421504 18.20950877 -28.63610276 12.59929512 -18.984375 6.92578125 C-17.69430542 6.16998779 -17.69430542 6.16998779 -16.37817383 5.39892578 C-14.88372034 4.51983549 -13.39331308 3.63379202 -11.90893555 2.73779297 C-7.6804154 0.22154731 -4.96643427 -0.74965046 0 0 Z " fill="#488AEE" transform="translate(1087,332)"/>
<path d="M0 0 C3.5173163 1.86803479 6.74964761 4.10334307 10.01953125 6.37109375 C11.42920418 7.32738426 11.42920418 7.32738426 12.86735535 8.30299377 C15.85735909 10.33596878 18.83472967 12.3866602 21.8125 14.4375 C23.83452172 15.81427486 25.85730043 17.18993864 27.88085938 18.56445312 C31.57059521 21.07877169 35.2594847 23.59420411 38.93676758 26.12670898 C39.6751033 26.63443344 40.41343903 27.1421579 41.17414856 27.66526794 C43.82977175 29.6065789 44.88625198 30.57344492 45.75 33.8125 C46.02971247 37.37883393 45.66109876 38.86677879 44 42 C41.78295898 43.72241211 41.78295898 43.72241211 38.99609375 45.27734375 C37.9582373 45.86588135 36.92038086 46.45441895 35.85107422 47.06079102 C34.72459473 47.68010498 33.59811523 48.29941895 32.4375 48.9375 C31.2598337 49.59885288 30.0829235 50.26155377 28.90673828 50.92553711 C25.86971696 52.63555981 22.82354867 54.3285026 19.77423096 56.01647949 C15.99394918 58.11202666 12.22523141 60.22832509 8.45385742 62.33984375 C6.38865334 63.49534926 4.32239557 64.6489734 2.25512695 65.80078125 C-4.83995439 69.76072318 -11.87002945 73.82056389 -18.875 77.9375 C-27.34970746 82.91724536 -35.89404221 87.7508067 -44.5 92.5 C-55.26682672 98.4427441 -65.92456488 104.55098464 -76.52734375 110.78125 C-77.41341309 111.30082275 -78.29948242 111.82039551 -79.21240234 112.35571289 C-81.21299089 113.53577629 -83.20741632 114.72631189 -85.19775391 115.92358398 C-86.25784668 116.55594971 -87.31793945 117.18831543 -88.41015625 117.83984375 C-89.85273804 118.70790649 -89.85273804 118.70790649 -91.32446289 119.59350586 C-95.70716278 121.89743269 -99.50221743 122.72304232 -104.375 121.3125 C-106.39460502 119.68128056 -107.02604162 118.40932691 -108 116 C-108.26742554 113.39541626 -108.26742554 113.39541626 -108.29052734 110.40869141 C-108.3096669 108.72641953 -108.3096669 108.72641953 -108.32919312 107.01016235 C-108.33141876 105.8028244 -108.33364441 104.59548645 -108.3359375 103.3515625 C-108.3425943 102.10627777 -108.3492511 100.86099304 -108.35610962 99.57797241 C-108.36623618 96.94343777 -108.37179182 94.30931581 -108.37060547 91.67480469 C-108.37044274 88.97824332 -108.38435399 86.28235988 -108.41162109 83.5859375 C-108.44826424 79.69510127 -108.45807839 75.80505406 -108.4609375 71.9140625 C-108.47530853 70.71077301 -108.48967957 69.50748352 -108.50448608 68.26773071 C-108.44638343 57.6182085 -108.44638343 57.6182085 -104 53 C-101.40063477 51.13232422 -101.40063477 51.13232422 -98.44140625 49.5546875 C-97.34449463 48.95922119 -96.24758301 48.36375488 -95.11743164 47.75024414 C-93.93247043 47.12513243 -92.74749281 46.50005181 -91.5625 45.875 C-90.33298233 45.21190936 -89.10439464 44.54709165 -87.87670898 43.88061523 C-85.40610046 42.53999428 -82.93262013 41.20493409 -80.45703125 39.87353516 C-75.7838048 37.34088404 -71.16805154 34.71567828 -66.5625 32.0625 C-64.88022928 31.09761973 -63.19793705 30.13277696 -61.515625 29.16796875 C-60.64357422 28.66700684 -59.77152344 28.16604492 -58.87304688 27.64990234 C-30.42298163 11.311906 -30.42298163 11.311906 -17.4375 4.0625 C-16.71216064 3.65563965 -15.98682129 3.2487793 -15.23950195 2.82958984 C-9.8736722 -0.15003932 -6.03176533 -1.89002834 0 0 Z " fill="#468BF2" transform="translate(524,528)"/>
<path d="M0 0 C2.57471178 1.65851197 3.57093461 2.39191675 5 5 C5.77103229 9.30383509 5.72417726 13.56660858 5.69921875 17.9296875 C5.70995171 19.82522873 5.70995171 19.82522873 5.72090149 21.75906372 C5.72868364 24.43123695 5.72611359 27.1010691 5.70678711 29.77294922 C5.68393824 33.18200084 5.71063863 36.58855341 5.75184917 39.99735832 C5.78371556 43.26650674 5.77042056 46.53543388 5.76171875 49.8046875 C5.77700119 51.02155243 5.79228363 52.23841736 5.80802917 53.49215698 C5.67843758 62.94830801 5.67843758 62.94830801 2.23706055 67.14868164 C-0.15203092 69.4421315 -2.5960113 71.3041006 -5.5546875 72.81640625 C-6.82856323 73.48615479 -6.82856323 73.48615479 -8.12817383 74.16943359 C-9.03462646 74.62914551 -9.9410791 75.08885742 -10.875 75.5625 C-12.8572008 76.60478555 -14.83761004 77.65048391 -16.81640625 78.69921875 C-17.83750488 79.23853027 -18.85860352 79.7778418 -19.91064453 80.33349609 C-24.95275405 83.05338226 -29.87982161 85.96269206 -34.8125 88.875 C-44.08105274 94.32677974 -53.41241975 99.65020305 -62.81958008 104.859375 C-67.90396849 107.67980636 -72.94646751 110.54419039 -77.92578125 113.546875 C-78.86655518 114.10745605 -79.8073291 114.66803711 -80.77661133 115.24560547 C-82.5323757 116.29607354 -84.27916641 117.3617615 -86.0144043 118.44580078 C-87.19836792 119.14938721 -87.19836792 119.14938721 -88.40625 119.8671875 C-89.07978516 120.28081543 -89.75332031 120.69444336 -90.44726562 121.12060547 C-95.33289655 122.80366233 -99.69640894 123.03392532 -104.48080444 120.88653564 C-107.21152762 119.27801179 -109.82132372 117.55620576 -112.43359375 115.76171875 C-113.39274185 115.12514847 -114.35188995 114.48857819 -115.34010315 113.8327179 C-117.35581504 112.48964623 -119.36500647 111.1367425 -121.36791992 109.7746582 C-124.43941081 107.68620074 -127.52888214 105.62694413 -130.62304688 103.57226562 C-132.58183138 102.262063 -134.53955224 100.95026851 -136.49609375 99.63671875 C-137.41998398 99.01786301 -138.34387421 98.39900726 -139.29576111 97.76139832 C-140.14747391 97.1810231 -140.99918671 96.60064789 -141.87670898 96.00268555 C-143.00181129 95.23990547 -143.00181129 95.23990547 -144.14964294 94.4617157 C-146 93 -146 93 -148 90 C-148.53636364 84.36818182 -148.53636364 84.36818182 -148 82 C-145.17570352 78.77954821 -142.18658606 76.76208131 -138.46875 74.671875 C-137.36249268 74.04522949 -136.25623535 73.41858398 -135.11645508 72.77294922 C-133.91101322 72.09855565 -132.70552697 71.42424142 -131.5 70.75 C-130.24400068 70.04120752 -128.98839192 69.33172257 -127.7331543 68.62158203 C-125.12353043 67.14583065 -122.51224642 65.67307859 -119.89990234 64.20214844 C-116.19122622 62.11125393 -112.49388271 60.00107176 -108.80078125 57.8828125 C-108.22083405 57.5502243 -107.64088684 57.21763611 -107.04336548 56.87496948 C-105.88000434 56.20771871 -104.71666399 55.5404317 -103.55334473 54.87310791 C-94.15108835 49.48235345 -84.71712065 44.15113648 -75.25 38.875 C-66.16472648 33.81158098 -57.16773114 28.61387217 -48.20092773 23.34399414 C-37.13224167 16.86331721 -25.90390268 10.67522325 -14.6652832 4.49536133 C-12.87359529 3.49013201 -11.10837247 2.4363655 -9.37182617 1.33862305 C-6.01058274 -0.55841223 -3.79540994 -0.54220142 0 0 Z " fill="#458DF2" transform="translate(1086,459)"/>
<path d="M0 0 C2.19140625 1.515625 2.19140625 1.515625 4 4 C4.2906124 6.89449949 4.38186045 9.37949935 4.25 12.25 C4.23195313 12.99507813 4.21390625 13.74015625 4.1953125 14.5078125 C4.14835649 16.33909701 4.07661652 18.16971649 4 20 C3.34 19.67 2.68 19.34 2 19 C2 18.34 2 17.68 2 17 C-2.88770121 15.31985271 -6.55730952 16.84467419 -11 19 C-12.52685139 19.88364555 -14.04048571 20.79037128 -15.54296875 21.71484375 C-21.15898352 25.12153222 -26.88124611 28.3148978 -32.625 31.5 C-41.16518555 36.25441511 -49.64033978 41.1022434 -58.0625 46.0625 C-66.93965071 51.2845242 -75.92809775 56.24860382 -85.00683594 61.11010742 C-93.04823521 65.43592027 -100.93076368 69.99977388 -108.79785156 74.63330078 C-117.33197115 79.6458191 -125.96808891 84.45835707 -134.63183594 89.24243164 C-143.58889164 94.19599372 -152.48345247 99.25134198 -161.36157227 104.34460449 C-168.29669258 108.32267316 -175.24510748 112.27081837 -182.25 116.125 C-190.18312974 120.49103845 -197.98553011 125.07014134 -205.78857422 129.66381836 C-213.82599772 134.37281356 -221.97291714 138.85302805 -230.22167969 143.18115234 C-231.5157373 143.87072021 -231.5157373 143.87072021 -232.8359375 144.57421875 C-233.97361572 145.17109497 -233.97361572 145.17109497 -235.13427734 145.7800293 C-237.29685898 147.01973829 -237.29685898 147.01973829 -239 150 C-239.07905064 152.33199388 -239.08798769 154.66832622 -239 157 C-243.55194156 155.48268615 -247.34003981 153.06964403 -251 150 C-252.58939347 146.82121306 -252.41576711 144.5043228 -252 141 C-246.79977909 135.70064143 -240.09770299 132.56494037 -233.625 129.0625 C-231.17997414 127.72555917 -228.73812634 126.38288107 -226.296875 125.0390625 C-225.68113617 124.70061813 -225.06539734 124.36217377 -224.43099976 124.01347351 C-218.51996057 120.75504861 -212.69127419 117.3619491 -206.875 113.9375 C-197.85609724 108.63694289 -188.76738722 103.4785599 -179.62963867 98.38598633 C-171.78872856 94.01227319 -163.97968285 89.58477981 -156.1875 85.125 C-155.31531326 84.62595154 -155.31531326 84.62595154 -154.42550659 84.11682129 C-150.2827758 81.74610949 -146.14123961 79.37331544 -142 77 C-137.27165982 74.29022133 -132.54270072 71.5815298 -127.8125 68.875 C-127.23176727 68.54262329 -126.65103455 68.21024658 -126.05270386 67.86779785 C-117.81270382 63.15365597 -109.54235173 58.49642409 -101.25 53.875 C-93.15278675 49.36224829 -85.11720806 44.75861303 -77.125 40.0625 C-67.53723347 34.42885846 -57.84700512 29.00223737 -48.11083984 23.62988281 C-38.31421504 18.20950877 -28.63610276 12.59929512 -18.984375 6.92578125 C-17.69430542 6.16998779 -17.69430542 6.16998779 -16.37817383 5.39892578 C-14.88372034 4.51983549 -13.39331308 3.63379202 -11.90893555 2.73779297 C-7.6804154 0.22154731 -4.96643427 -0.74965046 0 0 Z " fill="#3D92FC" transform="translate(1087,332)"/>
<path d="M0 0 C5.96222051 5.42533809 9.86749831 13.45264217 10.48828125 21.44140625 C10.71133846 31.94857478 9.36982064 40.00240793 2.5625 48.25 C-4.45384465 55.54021684 -12.93963277 59.34675833 -23.0625 59.6875 C-33.54643993 59.44335345 -40.96389189 55.96020158 -48.4375 48.74609375 C-55.4633143 41.17577884 -57.36083071 33.80648053 -57.21826172 23.68408203 C-56.81768641 14.18562359 -53.7264855 7.35297345 -47.1640625 0.421875 C-32.80599445 -11.75227979 -14.61823572 -11.01155311 0 0 Z M-45.1484375 9.0859375 C-49.70369166 15.53701998 -51.57525607 23.17142549 -50.25 31 C-47.84637906 39.50395004 -42.34353978 45.99981595 -34.75 50.375 C-27.54910412 53.25535835 -20.80066481 53.37192449 -13.5625 50.6875 C-5.35220084 46.99476885 -1.68105967 42.77144098 2.10546875 34.62890625 C4.6032706 27.52764707 4.32547922 21.01481961 1.3125 14.125 C-2.70350541 7.11955236 -8.18988973 1.88363887 -15.9375 -0.625 C-27.06700591 -3.23667853 -37.82988815 0.13195813 -45.1484375 9.0859375 Z " fill="#2D225E" transform="translate(1515.75,1226.625)"/>
<path d="M0 0 C3.34125 -0.103125 6.6825 -0.20625 10.125 -0.3125 C11.68758545 -0.38078003 11.68758545 -0.38078003 13.28173828 -0.45043945 C17.78746204 -0.51760498 21.02445442 -0.52926199 24.6171875 2.39453125 C28.26764889 6.38610133 28.44125437 9.10074111 28.43359375 14.37890625 C27.72161405 18.6828556 25.15991943 21.15983433 22 24 C22.5053125 24.84304688 23.010625 25.68609375 23.53125 26.5546875 C24.1809375 27.65039062 24.830625 28.74609375 25.5 29.875 C26.1496875 30.96554687 26.799375 32.05609375 27.46875 33.1796875 C29 36 29 36 29 38 C23.9655735 39.05987926 23.9655735 39.05987926 21 38 C18.92955519 35.03908845 17.38256858 31.95478886 15.7421875 28.73828125 C14.28130862 25.9317362 14.28130862 25.9317362 12.0078125 24.98046875 C9.87934589 24.66318559 9.87934589 24.66318559 7 25 C7 29.29 7 33.58 7 38 C4.69 38 2.38 38 0 38 C0 25.46 0 12.92 0 0 Z M7 6 C7 9.96 7 13.92 7 18 C8.753125 18.061875 10.50625 18.12375 12.3125 18.1875 C13.29863281 18.22230469 14.28476563 18.25710938 15.30078125 18.29296875 C18.0030006 18.21712875 18.0030006 18.21712875 19.859375 16.7109375 C21.33541554 14.84855655 21.33541554 14.84855655 20.9375 11.4375 C20.39623825 7.99226042 20.39623825 7.99226042 18.23828125 6.79296875 C14.47770178 5.46068667 10.96408183 5.88340936 7 6 Z " fill="#2D225E" transform="translate(1479,1233)"/>
</svg>
